<svg width="107" height="101" viewBox="0 0 107 101" fill="none" xmlns="http://www.w3.org/2000/svg">
<path d="M31.2344 31.791L31.72 32.6652L31.7254 32.6622L31.2344 31.791ZM26.7422 35.7461L27.5384 36.3512L27.5441 36.3436L26.7422 35.7461ZM23.7148 41.3613L22.7767 41.0149L22.7721 41.0277L23.7148 41.3613ZM21.9082 47.9043L20.9281 47.7054L20.926 47.7165L21.9082 47.9043ZM21.0293 54.4961L20.0321 54.4217L20.0315 54.4291L20.0311 54.4365L21.0293 54.4961ZM21.127 67.3379L20.1299 67.4156L20.1312 67.4296L21.127 67.3379ZM24.1543 81.9375L23.2111 82.2696L23.2139 82.2777L23.2169 82.2857L24.1543 81.9375ZM27.2305 87.9922L26.4055 88.5575L26.4127 88.5677L27.2305 87.9922ZM31.5762 92.2402L31.0329 93.0798L31.0424 93.086L31.0521 93.0919L31.5762 92.2402ZM43.5391 92.0938L44.0975 92.9234L44.1083 92.9159L43.5391 92.0938ZM47.8359 87.5039L46.9887 86.9726L46.9863 86.9765L47.8359 87.5039ZM50.7168 80.9609L51.6764 81.2424L51.6774 81.239L50.7168 80.9609ZM52.3281 73.3438L51.3391 73.1954L51.3374 73.2075L52.3281 73.3438ZM52.3281 47.123L51.3467 47.3153L51.3491 47.327L52.3281 47.123ZM46.6152 34.3301L45.9081 35.0372L45.9176 35.0465L46.6152 34.3301ZM43.0508 31.6445L42.5737 32.5234L42.5885 32.5314L42.6036 32.539L43.0508 31.6445ZM39.8281 30.5215L39.6637 31.5079L39.6819 31.5109L39.7002 31.5133L39.8281 30.5215ZM16.1465 46.4395L17.1018 46.7351L17.1027 46.732L16.1465 46.4395ZM19.3691 38.7246L18.4944 38.24L18.4922 38.2441L19.3691 38.7246ZM24.1055 32.4746L24.7996 33.1945L24.7998 33.1942L24.1055 32.4746ZM30.4531 28.2754L30.844 29.1959L30.85 29.1932L30.4531 28.2754ZM45.3945 27.9336L45.0257 28.8631L45.0307 28.8651L45.3945 27.9336ZM50.9609 31.3027L50.3003 32.0535L50.3077 32.0599L50.9609 31.3027ZM55.2578 36.3809L54.4066 36.9058L54.413 36.9159L55.2578 36.3809ZM58.2852 42.6797L57.3406 43.0082L57.345 43.0203L58.2852 42.6797ZM60.0918 49.7598L59.104 49.9157L59.1052 49.9231L59.1065 49.9306L60.0918 49.7598ZM60.1895 65.3359L61.1822 65.4559L61.1824 65.4547L60.1895 65.3359ZM55.4531 82.9629L56.3661 83.371L56.3678 83.3671L55.4531 82.9629ZM44.8086 95.5117L45.29 96.3882L45.2942 96.3859L44.8086 95.5117ZM23.4707 92.4355L22.7924 93.1704L22.7994 93.1768L23.4707 92.4355ZM19.0762 86.918L18.2095 87.4169L18.2129 87.4227L19.0762 86.918ZM16 79.9844L15.0453 80.2819L15.0476 80.2894L15.0501 80.2969L16 79.9844ZM14.2422 72.0742L13.2504 72.2026L13.252 72.214L14.2422 72.0742ZM37.5332 29.2773C34.9821 29.2773 32.7076 29.8128 30.7434 30.9199L31.7254 32.6622C33.3419 31.751 35.2666 31.2773 37.5332 31.2773V29.2773ZM30.7487 30.9169C28.8634 31.9643 27.2593 33.3783 25.9403 35.1486L27.5441 36.3436C28.699 34.7936 30.0897 33.5709 31.72 32.6652L30.7487 30.9169ZM25.946 35.141C24.6434 36.855 23.5887 38.8158 22.7767 41.015L24.6529 41.7077C25.4034 39.6751 26.367 37.8924 27.5383 36.3512L25.946 35.141ZM22.7721 41.0277C22.0075 43.1885 21.393 45.4146 20.9282 47.7055L22.8882 48.1031C23.3349 45.9018 23.9248 43.7659 24.6576 41.6949L22.7721 41.0277ZM20.926 47.7165C20.4959 49.9664 20.1978 52.2015 20.0321 54.4217L22.0265 54.5705C22.1864 52.4287 22.4742 50.2693 22.8904 48.0921L20.926 47.7165ZM20.0311 54.4365C19.9 56.6328 19.834 58.6225 19.834 60.4043H21.834C21.834 58.6704 21.8982 56.7214 22.0275 54.5557L20.0311 54.4365ZM19.834 60.4043C19.834 62.5504 19.933 64.8879 20.13 67.4156L22.1239 67.2602C21.9303 64.7749 21.834 62.49 21.834 60.4043H19.834ZM20.1312 67.4296C20.3622 69.9383 20.7253 72.4462 21.2201 74.9534L23.1822 74.5661C22.7005 72.1254 22.3474 69.6854 22.1227 67.2462L20.1312 67.4296ZM21.2201 74.9534C21.7174 77.473 22.3809 79.9119 23.2111 82.2696L25.0975 81.6054C24.3001 79.3407 23.6615 76.9944 23.1822 74.5661L21.2201 74.9534ZM23.2169 82.2857C24.0878 84.6305 25.1489 86.7235 26.4055 88.5574L28.0554 87.427C26.9032 85.7453 25.9135 83.8018 25.0917 81.5893L23.2169 82.2857ZM26.4127 88.5677C27.7169 90.4211 29.2561 91.9301 31.0329 93.0798L32.1194 91.4007C30.5759 90.4019 29.218 89.0789 28.0483 87.4167L26.4127 88.5677ZM31.0521 93.0919C32.9199 94.2413 35.0586 94.8027 37.4355 94.8027V92.8027C35.3854 92.8027 33.6179 92.3225 32.1003 91.3886L31.0521 93.0919ZM37.4355 94.8027C39.9772 94.8027 42.2139 94.1911 44.0974 92.9233L42.9807 91.2642C41.4788 92.275 39.6465 92.8027 37.4355 92.8027V94.8027ZM44.1083 92.9159C45.9224 91.66 47.4472 90.0264 48.6856 88.0313L46.9863 86.9765C45.8809 88.7575 44.5412 90.1837 42.9699 91.2716L44.1083 92.9159ZM48.6831 88.0352C49.9418 86.0281 50.9375 83.7613 51.6764 81.2424L49.7572 80.6795C49.0638 83.0434 48.1389 85.1386 46.9887 86.9726L48.6831 88.0352ZM51.6774 81.239C52.4072 78.7176 52.9543 76.1311 53.3188 73.48L51.3374 73.2075C50.9858 75.7647 50.4586 78.2564 49.7562 80.6829L51.6774 81.239ZM53.3171 73.4921C53.7124 70.8562 53.9762 68.2357 54.1081 65.6306L52.1107 65.5295C51.9821 68.0677 51.7251 70.6229 51.3392 73.1954L53.3171 73.4921ZM54.1081 65.6306C54.239 63.0454 54.3047 60.6682 54.3047 58.5H52.3047C52.3047 60.6287 52.2402 62.9716 52.1107 65.5295L54.1081 65.6306ZM54.3047 58.5C54.3047 53.9966 53.9764 50.1317 53.3071 46.9191L51.3491 47.327C51.9819 50.3644 52.3047 54.0841 52.3047 58.5H54.3047ZM53.3095 46.9308C52.681 43.7222 51.8629 41.0174 50.841 38.8373L49.0301 39.6862C49.9613 41.6727 50.7383 44.2087 51.3468 47.3153L53.3095 46.9308ZM50.841 38.8373C49.8293 36.679 48.6596 34.9249 47.3129 33.6136L45.9176 35.0465C47.0449 36.1441 48.0886 37.6777 49.0301 39.6862L50.841 38.8373ZM47.3223 33.623C46.0634 32.3641 44.7899 31.3961 43.498 30.7501L42.6036 32.539C43.6554 33.0649 44.7582 33.8872 45.9081 35.0372L47.3223 33.623ZM43.5279 30.7657C42.3086 30.1038 41.116 29.6794 39.9561 29.5297L39.7002 31.5133C40.5585 31.624 41.5144 31.9483 42.5737 32.5234L43.5279 30.7657ZM39.9925 29.5351C38.9969 29.3692 38.1686 29.2773 37.5332 29.2773V31.2773C38.0046 31.2773 38.7062 31.3483 39.6637 31.5079L39.9925 29.5351ZM14.7051 63.6758C14.7051 60.8237 14.8973 57.9545 15.2822 55.0677L13.2998 54.8034C12.9034 57.776 12.7051 60.7336 12.7051 63.6758H14.7051ZM15.2822 55.0677C15.6657 52.1916 16.2725 49.4144 17.1018 46.7351L15.1912 46.1438C14.3278 48.9333 13.6976 51.8201 13.2998 54.8034L15.2822 55.0677ZM17.1027 46.732C17.9305 44.0259 18.9789 41.5177 20.2461 39.2051L18.4922 38.2441C17.1552 40.6841 16.0552 43.3192 15.1902 46.1469L17.1027 46.732ZM20.2439 39.2092C21.5345 36.8798 23.0542 34.8775 24.7996 33.1945L23.4113 31.7548C21.5109 33.5873 19.873 35.7517 18.4944 38.24L20.2439 39.2092ZM24.7998 33.1942C26.5672 31.4889 28.5801 30.1572 30.844 29.1958L30.0623 27.3549C27.5735 28.4118 25.3547 29.8796 23.4111 31.755L24.7998 33.1942ZM30.85 29.1932C33.1158 28.2135 35.6958 27.7129 38.6074 27.7129V25.7129C35.4644 25.7129 32.6082 26.254 30.0562 27.3575L30.85 29.1932ZM38.6074 27.7129C40.9703 27.7129 43.1057 28.1012 45.0257 28.8631L45.7634 27.0041C43.5818 26.1384 41.1924 25.7129 38.6074 25.7129V27.7129ZM45.0307 28.8651C47.0088 29.6377 48.7631 30.7007 50.3003 32.0534L51.6216 30.552C49.9036 29.0402 47.9469 27.857 45.7584 27.0021L45.0307 28.8651ZM50.3077 32.0599C51.8868 33.4223 53.2534 35.0356 54.4066 36.9057L56.109 35.856C54.8534 33.8198 53.3553 32.0478 51.6142 30.5456L50.3077 32.0599ZM54.413 36.9159C55.6078 38.8024 56.5839 40.8325 57.3407 43.0082L59.2297 42.3512C58.4239 40.0347 57.3818 37.8656 56.1026 35.8458L54.413 36.9159ZM57.345 43.0203C58.136 45.2037 58.7229 47.5017 59.104 49.9157L61.0796 49.6038C60.6795 47.0699 60.0619 44.6479 59.2253 42.339L57.345 43.0203ZM59.1065 49.9306C59.52 52.3164 59.7266 54.7007 59.7266 57.084H61.7266C61.7266 54.5845 61.5099 52.0859 61.0771 49.589L59.1065 49.9306ZM59.7266 57.084C59.7266 59.5438 59.5508 62.2542 59.1965 65.2172L61.1824 65.4547C61.5443 62.4281 61.7266 59.6372 61.7266 57.084H59.7266ZM59.1967 65.2159C58.8442 68.1319 58.2832 71.0662 57.5129 74.0191L59.4481 74.5239C60.2403 71.4872 60.8186 68.4645 61.1822 65.4559L59.1967 65.2159ZM57.5129 74.0191C56.745 76.9625 55.7535 79.8089 54.5384 82.5587L56.3678 83.3671C57.6267 80.5179 58.6534 77.57 59.4481 74.5239L57.5129 74.0191ZM54.5402 82.5548C53.3361 85.2482 51.8838 87.6288 50.187 89.7027L51.7349 90.9692C53.5537 88.7462 55.0962 86.2115 56.366 83.371L54.5402 82.5548ZM50.187 89.7027C48.5063 91.7569 46.5523 93.399 44.323 94.6376L45.2942 96.3859C47.7524 95.0203 49.8999 93.2119 51.7349 90.9692L50.187 89.7027ZM44.3271 94.6352C42.1793 95.815 39.7277 96.416 36.9473 96.416V98.416C40.0262 98.416 42.8155 97.7475 45.29 96.3882L44.3271 94.6352ZM36.9473 96.416C34.2869 96.416 31.9063 95.9937 29.7921 95.1664L29.0633 97.0289C31.4413 97.9594 34.0738 98.416 36.9473 98.416V96.416ZM29.7921 95.1664C27.6549 94.3301 25.7741 93.1725 24.142 91.6943L22.7994 93.1768C24.6179 94.8236 26.7084 96.1074 29.0633 97.0289L29.7921 95.1664ZM24.149 91.7007C22.5335 90.2095 21.1297 88.4492 19.9395 86.4133L18.2129 87.4227C19.4966 89.6185 21.0225 91.5366 22.7924 93.1704L24.149 91.7007ZM19.9428 86.419C18.7415 84.3326 17.7435 82.0843 16.9499 79.6719L15.0501 80.2969C15.8841 82.8324 16.9368 85.2064 18.2095 87.4169L19.9428 86.419ZM16.9547 79.6868C16.1905 77.235 15.6159 74.6513 15.2324 71.9344L13.252 72.214C13.6497 75.031 14.247 77.7207 15.0453 80.2819L16.9547 79.6868ZM15.2339 71.9459C14.8814 69.2221 14.7051 66.4655 14.7051 63.6758H12.7051C12.7051 66.5501 12.8868 69.3924 13.2505 72.2026L15.2339 71.9459ZM81.0879 35.502L82.0873 35.537L82.1532 33.6569L80.5579 34.654L81.0879 35.502ZM77.5723 37.5527L77.0903 36.6765L77.0844 36.6798L77.5723 37.5527ZM73.7148 39.6035L74.1541 40.5019L74.162 40.498L74.17 40.494L73.7148 39.6035ZM68.9785 41.7031L68.0806 42.1433L68.4902 42.9788L69.353 42.6304L68.9785 41.7031ZM67.7578 39.2129L67.3399 38.3044L66.4088 38.7327L66.8599 39.653L67.7578 39.2129ZM72.3965 36.8691L71.919 35.9905L71.9108 35.995L72.3965 36.8691ZM81.2832 30.9121L81.91 31.6914L81.9201 31.6831L81.2832 30.9121ZM85.9707 26.7129V25.7129H85.5684L85.2782 25.9915L85.9707 26.7129ZM88.8516 26.7129L89.8511 26.7445L89.8837 25.7129H88.8516V26.7129ZM87.875 55.1309L86.8757 55.0924L86.8755 55.0999L87.875 55.1309ZM86.8984 82.6211L85.8992 82.5827L85.8988 82.5921L85.8986 82.6015L86.8984 82.6211ZM87.1426 89.2617L86.1664 89.4786L86.1702 89.4957L86.1746 89.5127L87.1426 89.2617ZM88.0703 91.3613L87.2703 91.9613L87.2915 91.9896L87.3146 92.0163L88.0703 91.3613ZM91.7812 92.9238L91.9194 91.9334L91.9099 91.9321L91.9004 91.931L91.7812 92.9238ZM93.8809 93.2168H94.8809V92.3466L94.0191 92.2264L93.8809 93.2168ZM93.8809 96L93.7457 96.9908L94.8809 97.1456V96H93.8809ZM91.293 95.6582L91.4209 94.6664L91.3954 94.6631L91.3697 94.6611L91.293 95.6582ZM88.168 95.4629L88.0893 96.4598L88.1023 96.4608L88.1154 96.4615L88.168 95.4629ZM78.3535 95.4629L78.3052 94.4641L78.3044 94.4641L78.3535 95.4629ZM71.7617 96H70.7617V97.1139L71.8692 96.9942L71.7617 96ZM71.7617 93.2168L71.685 92.2197L70.7617 92.2908V93.2168H71.7617ZM75.7656 92.8262L75.6488 91.833L75.6416 91.8339L75.7656 92.8262ZM77.377 92.6797L77.3146 91.6816L77.377 92.6797ZM79.0859 92.582L79.1385 93.5806L80.0532 93.5325L80.0853 92.6171L79.0859 92.582ZM80.5579 34.654C79.5348 35.2934 78.3794 35.9675 77.0903 36.6765L78.0542 38.429C79.3693 37.7056 80.5576 37.0126 81.6179 36.35L80.5579 34.654ZM77.0844 36.6798C75.9911 37.2908 74.7166 37.9685 73.2597 38.7131L74.17 40.494C75.6428 39.7412 76.9399 39.0517 78.0601 38.4257L77.0844 36.6798ZM73.2756 38.7051C71.8344 39.4098 70.2774 40.1001 68.6041 40.7759L69.353 42.6304C71.0651 41.939 72.6656 41.2296 74.1541 40.5019L73.2756 38.7051ZM69.8764 41.263L68.6557 38.7727L66.8599 39.653L68.0806 42.1433L69.8764 41.263ZM68.1757 40.1214C69.8248 39.3628 71.3937 38.5702 72.8821 37.7433L71.9108 35.995C70.4696 36.7957 68.9461 37.5656 67.3399 38.3044L68.1757 40.1214ZM72.874 37.7478C74.3987 36.9191 75.9055 36.0083 77.3945 35.0156L76.2851 33.3515C74.8445 34.312 73.3891 35.1915 71.919 35.9905L72.874 37.7478ZM77.3945 35.0156C78.8863 34.0211 80.3914 32.9128 81.91 31.6913L80.6564 30.1329C79.1802 31.3203 77.7231 32.3929 76.2851 33.3515L77.3945 35.0156ZM81.9201 31.6831C83.4394 30.428 85.0205 29.0113 86.6632 27.4343L85.2782 25.9915C83.6657 27.5395 82.1218 28.9223 80.6463 30.1411L81.9201 31.6831ZM85.9707 27.7129H88.8516V25.7129H85.9707V27.7129ZM87.8521 26.6813C87.6893 31.8238 87.5266 36.7872 87.3639 41.5715L89.3627 41.6395C89.5255 36.8535 89.6883 31.8885 89.8511 26.7445L87.8521 26.6813ZM87.3639 41.5715C87.2011 46.3553 87.0384 50.8623 86.8757 55.0924L88.8743 55.1693C89.0371 50.9359 89.1999 46.4259 89.3627 41.6395L87.3639 41.5715ZM86.8755 55.0999C86.7453 59.2975 86.6152 63.1693 86.485 66.7153L88.4837 66.7886C88.614 63.2383 88.7443 59.3626 88.8745 55.1619L86.8755 55.0999ZM86.485 66.7153C86.3548 70.2635 86.2409 73.3722 86.1432 76.0416L88.1419 76.1147C88.2396 73.4455 88.3535 70.3368 88.4837 66.7886L86.485 66.7153ZM86.1432 76.0416C86.0456 78.7105 85.9642 80.8908 85.8992 82.5827L87.8977 82.6595C87.9628 80.9659 88.0442 78.7843 88.1419 76.1147L86.1432 76.0416ZM85.8986 82.6015C85.8661 84.2586 85.8496 85.3273 85.8496 85.7949H87.8496C87.8496 85.3511 87.8656 84.3039 87.8982 82.6407L85.8986 82.6015ZM85.8496 85.7949C85.8496 87.2628 85.9488 88.4995 86.1664 89.4786L88.1188 89.0448C87.9457 88.2661 87.8496 87.1916 87.8496 85.7949H85.8496ZM86.1746 89.5127C86.4232 90.4715 86.7771 91.3038 87.2703 91.9613L88.8703 90.7613C88.5822 90.3772 88.3177 89.8098 88.1106 89.0108L86.1746 89.5127ZM87.3146 92.0163C87.8506 92.6347 88.5136 93.0889 89.2871 93.3739L89.9785 91.4972C89.5151 91.3265 89.1363 91.0645 88.826 90.7064L87.3146 92.0163ZM89.2871 93.3739C89.9939 93.6343 90.7888 93.8119 91.6621 93.9167L91.9004 91.931C91.1461 91.8404 90.5087 91.6925 89.9785 91.4972L89.2871 93.3739ZM91.6431 93.9142L93.7427 94.2072L94.0191 92.2264L91.9194 91.9334L91.6431 93.9142ZM92.8809 93.2168V96H94.8809V93.2168H92.8809ZM94.016 95.0092C93.2967 94.9111 92.4316 94.7968 91.4209 94.6664L91.165 96.65C92.1726 96.78 93.0327 96.8936 93.7457 96.9908L94.016 95.0092ZM91.3697 94.6611C90.5125 94.5952 89.4623 94.5296 88.2205 94.4643L88.1154 96.4615C89.3476 96.5264 90.3807 96.591 91.2163 96.6553L91.3697 94.6611ZM88.2467 94.466C86.9769 94.3657 85.5174 94.3164 83.8711 94.3164V96.3164C85.48 96.3164 86.8851 96.3647 88.0893 96.4598L88.2467 94.466ZM83.8711 94.3164C82.1918 94.3164 80.3362 94.3658 78.3052 94.4641L78.4018 96.4617C80.4073 96.3647 82.2301 96.3164 83.8711 96.3164V94.3164ZM78.3044 94.4641C76.2956 94.5629 74.0785 94.7437 71.6542 95.0058L71.8692 96.9942C74.2627 96.7355 76.4401 96.5582 78.4026 96.4617L78.3044 94.4641ZM72.7617 96V93.2168H70.7617V96H72.7617ZM71.8384 94.2139C72.6903 94.1483 73.4468 94.0826 74.1073 94.0165L73.9083 92.0264C73.2667 92.0906 72.5259 92.1551 71.685 92.2197L71.8384 94.2139ZM74.1073 94.0165C74.7647 93.9508 75.359 93.8848 75.8897 93.8184L75.6416 91.8339C75.1306 91.8978 74.5531 91.962 73.9083 92.0264L74.1073 94.0165ZM75.8825 93.8193C76.419 93.7562 76.9379 93.7091 77.4393 93.6777L77.3146 91.6816C76.7744 91.7154 76.2191 91.7659 75.6488 91.833L75.8825 93.8193ZM77.4393 93.6777C77.9564 93.6454 78.5227 93.6131 79.1385 93.5806L79.0334 91.5834C78.4122 91.6161 77.8392 91.6488 77.3146 91.6816L77.4393 93.6777ZM80.0853 92.6171L82.0873 35.537L80.0885 35.4669L78.0866 92.547L80.0853 92.6171Z" fill="#050B19"/>
<rect x="9.5" y="1.308" width="62" height="2.232" rx="1.116" stroke="#050B19"/>
</svg>
