<svg width="107" height="101" viewBox="0 0 107 101" fill="none" xmlns="http://www.w3.org/2000/svg">
<path d="M22.9824 31.791L23.4681 32.6652L23.4734 32.6622L22.9824 31.791ZM18.4902 35.7461L19.2864 36.3512L19.2921 36.3436L18.4902 35.7461ZM15.4629 41.3613L14.5247 41.0149L14.5202 41.0277L15.4629 41.3613ZM13.6562 47.9043L12.6762 47.7054L12.674 47.7165L13.6562 47.9043ZM12.7773 54.4961L11.7801 54.4217L11.7796 54.4291L11.7791 54.4365L12.7773 54.4961ZM12.875 67.3379L11.8779 67.4156L11.8792 67.4296L12.875 67.3379ZM15.9023 81.9375L14.9591 82.2696L14.9619 82.2777L14.9649 82.2857L15.9023 81.9375ZM18.9785 87.9922L18.1535 88.5575L18.1607 88.5677L18.9785 87.9922ZM23.3242 92.2402L22.781 93.0798L22.7905 93.086L22.8001 93.0919L23.3242 92.2402ZM35.2871 92.0938L35.8455 92.9234L35.8563 92.9159L35.2871 92.0938ZM39.584 87.5039L38.7368 86.9726L38.7343 86.9765L39.584 87.5039ZM42.4648 80.9609L43.4244 81.2424L43.4254 81.239L42.4648 80.9609ZM44.0762 73.3438L43.0872 73.1954L43.0855 73.2075L44.0762 73.3438ZM44.0762 47.123L43.0948 47.3153L43.0972 47.327L44.0762 47.123ZM38.3633 34.3301L37.6561 35.0372L37.6657 35.0465L38.3633 34.3301ZM34.7988 31.6445L34.3217 32.5234L34.3365 32.5314L34.3516 32.539L34.7988 31.6445ZM31.5762 30.5215L31.4118 31.5079L31.4299 31.5109L31.4482 31.5133L31.5762 30.5215ZM7.89453 46.4395L8.84982 46.7351L8.8508 46.732L7.89453 46.4395ZM11.1172 38.7246L10.2425 38.24L10.2402 38.2441L11.1172 38.7246ZM15.8535 32.4746L16.5477 33.1945L16.5479 33.1942L15.8535 32.4746ZM22.2012 28.2754L22.5921 29.1959L22.5981 29.1932L22.2012 28.2754ZM37.1426 27.9336L36.7737 28.8631L36.7787 28.8651L37.1426 27.9336ZM42.709 31.3027L42.0483 32.0535L42.0558 32.0599L42.709 31.3027ZM47.0059 36.3809L46.1546 36.9058L46.161 36.9159L47.0059 36.3809ZM50.0332 42.6797L49.0886 43.0082L49.093 43.0203L50.0332 42.6797ZM51.8398 49.7598L50.8521 49.9157L50.8533 49.9231L50.8545 49.9306L51.8398 49.7598ZM51.9375 65.3359L52.9303 65.4559L52.9304 65.4547L51.9375 65.3359ZM47.2012 82.9629L48.1141 83.371L48.1159 83.3671L47.2012 82.9629ZM36.5566 95.5117L37.0381 96.3882L37.0423 96.3859L36.5566 95.5117ZM15.2188 92.4355L14.5404 93.1704L14.5475 93.1768L15.2188 92.4355ZM10.8242 86.918L9.95758 87.4169L9.96092 87.4227L10.8242 86.918ZM7.74805 79.9844L6.79335 80.2819L6.79568 80.2894L6.79812 80.2969L7.74805 79.9844ZM5.99023 72.0742L4.99844 72.2026L5.00005 72.214L5.99023 72.0742ZM29.2812 29.2773C26.7302 29.2773 24.4556 29.8128 22.4914 30.9199L23.4734 32.6622C25.09 31.751 27.0146 31.2773 29.2812 31.2773V29.2773ZM22.4968 30.9169C20.6114 31.9643 19.0074 33.3783 17.6884 35.1486L19.2921 36.3436C20.447 34.7936 21.8378 33.5709 23.4681 32.6652L22.4968 30.9169ZM17.6941 35.141C16.3914 36.855 15.3368 38.8158 14.5248 41.015L16.401 41.7077C17.1515 39.6751 18.1151 37.8924 19.2864 36.3512L17.6941 35.141ZM14.5202 41.0277C13.7556 43.1885 13.141 45.4146 12.6762 47.7055L14.6363 48.1031C15.0829 45.9018 15.6728 43.7659 16.4056 41.6949L14.5202 41.0277ZM12.674 47.7165C12.2439 49.9664 11.9458 52.2015 11.7801 54.4217L13.7746 54.5705C13.9344 52.4287 14.2222 50.2693 14.6385 48.0921L12.674 47.7165ZM11.7791 54.4365C11.648 56.6328 11.582 58.6225 11.582 60.4043H13.582C13.582 58.6704 13.6463 56.7214 13.7756 54.5557L11.7791 54.4365ZM11.582 60.4043C11.582 62.5504 11.6811 64.8879 11.878 67.4156L13.872 67.2602C13.6783 64.7749 13.582 62.49 13.582 60.4043H11.582ZM11.8792 67.4296C12.1103 69.9383 12.4733 72.4462 12.9681 74.9534L14.9303 74.5661C14.4486 72.1254 14.0955 69.6854 13.8708 67.2462L11.8792 67.4296ZM12.9681 74.9534C13.4654 77.473 14.1289 79.9119 14.9591 82.2696L16.8456 81.6054C16.0481 79.3407 15.4096 76.9944 14.9303 74.5661L12.9681 74.9534ZM14.9649 82.2857C15.8358 84.6305 16.897 86.7235 18.1536 88.5574L19.8034 87.427C18.6512 85.7453 17.6616 83.8018 16.8398 81.5893L14.9649 82.2857ZM18.1607 88.5677C19.465 90.4211 21.0042 91.9301 22.781 93.0798L23.8675 91.4007C22.3239 90.4019 20.966 89.0789 19.7963 87.4167L18.1607 88.5677ZM22.8001 93.0919C24.6679 94.2413 26.8067 94.8027 29.1836 94.8027V92.8027C27.1334 92.8027 25.3659 92.3225 23.8483 91.3886L22.8001 93.0919ZM29.1836 94.8027C31.7253 94.8027 33.9619 94.1911 35.8455 92.9233L34.7287 91.2642C33.2269 92.275 31.3945 92.8027 29.1836 92.8027V94.8027ZM35.8563 92.9159C37.6704 91.66 39.1953 90.0264 40.4336 88.0313L38.7343 86.9765C37.6289 88.7575 36.2892 90.1837 34.7179 91.2716L35.8563 92.9159ZM40.4312 88.0352C41.6899 86.0281 42.6856 83.7613 43.4244 81.2424L41.5053 80.6795C40.8118 83.0434 39.8869 85.1386 38.7368 86.9726L40.4312 88.0352ZM43.4254 81.239C44.1553 78.7176 44.7023 76.1311 45.0669 73.48L43.0855 73.2075C42.7339 75.7647 42.2067 78.2564 41.5043 80.6829L43.4254 81.239ZM45.0651 73.4921C45.4605 70.8562 45.7242 68.2357 45.8561 65.6306L43.8587 65.5295C43.7302 68.0677 43.4731 70.6229 43.0872 73.1954L45.0651 73.4921ZM45.8561 65.6306C45.987 63.0454 46.0527 60.6682 46.0527 58.5H44.0527C44.0527 60.6287 43.9882 62.9716 43.8587 65.5295L45.8561 65.6306ZM46.0527 58.5C46.0527 53.9966 45.7245 50.1317 45.0552 46.9191L43.0972 47.327C43.73 50.3644 44.0527 54.0841 44.0527 58.5H46.0527ZM45.0575 46.9308C44.429 43.7222 43.611 41.0174 42.5891 38.8373L40.7781 39.6862C41.7093 41.6727 42.4863 44.2087 43.0948 47.3153L45.0575 46.9308ZM42.5891 38.8373C41.5774 36.679 40.4076 34.9249 39.0609 33.6136L37.6657 35.0465C38.7929 36.1441 39.8367 37.6777 40.7781 39.6862L42.5891 38.8373ZM39.0704 33.623C37.8115 32.3641 36.538 31.3961 35.246 30.7501L34.3516 32.539C35.4035 33.0649 36.5062 33.8872 37.6562 35.0372L39.0704 33.623ZM35.2759 30.7657C34.0566 30.1038 32.864 29.6794 31.7041 29.5297L31.4482 31.5133C32.3065 31.624 33.2624 31.9483 34.3217 32.5234L35.2759 30.7657ZM31.7406 29.5351C30.7449 29.3692 29.9166 29.2773 29.2812 29.2773V31.2773C29.7527 31.2773 30.4543 31.3483 31.4118 31.5079L31.7406 29.5351ZM6.45312 63.6758C6.45312 60.8237 6.64539 57.9545 7.03029 55.0677L5.04783 54.8034C4.65149 57.776 4.45312 60.7336 4.45312 63.6758H6.45312ZM7.03029 55.0677C7.41377 52.1916 8.02052 49.4144 8.84982 46.7351L6.93925 46.1438C6.07583 48.9333 5.44561 51.8201 5.04783 54.8034L7.03029 55.0677ZM8.8508 46.732C9.67854 44.0259 10.727 41.5177 11.9942 39.2051L10.2402 38.2441C8.90322 40.6841 7.80323 43.3192 6.93827 46.1469L8.8508 46.732ZM11.9919 39.2092C13.2826 36.8798 14.8023 34.8775 16.5477 33.1945L15.1594 31.7548C13.2589 33.5873 11.6211 35.7517 10.2425 38.24L11.9919 39.2092ZM16.5479 33.1942C18.3152 31.4889 20.3282 30.1572 22.592 29.1958L21.8103 27.3549C19.3215 28.4118 17.1028 29.8796 15.1591 31.755L16.5479 33.1942ZM22.5981 29.1932C24.8638 28.2135 27.4438 27.7129 30.3555 27.7129V25.7129C27.2124 25.7129 24.3562 26.254 21.8043 27.3575L22.5981 29.1932ZM30.3555 27.7129C32.7184 27.7129 34.8537 28.1012 36.7737 28.8631L37.5114 27.0041C35.3299 26.1384 32.9405 25.7129 30.3555 25.7129V27.7129ZM36.7787 28.8651C38.7568 29.6377 40.5111 30.7007 42.0484 32.0534L43.3696 30.552C41.6516 29.0402 39.695 27.857 37.5064 27.0021L36.7787 28.8651ZM42.0558 32.0599C43.6349 33.4223 45.0015 35.0356 46.1547 36.9057L47.857 35.856C46.6014 33.8198 45.1034 32.0478 43.3622 30.5456L42.0558 32.0599ZM46.161 36.9159C47.3558 38.8024 48.3319 40.8325 49.0887 43.0082L50.9777 42.3512C50.172 40.0347 49.1299 37.8656 47.8507 35.8458L46.161 36.9159ZM49.093 43.0203C49.8841 45.2037 50.4709 47.5017 50.8521 49.9157L52.8276 49.6038C52.4275 47.0699 51.8099 44.6479 50.9734 42.339L49.093 43.0203ZM50.8545 49.9306C51.2681 52.3164 51.4746 54.7007 51.4746 57.084H53.4746C53.4746 54.5845 53.258 52.0859 52.8252 49.589L50.8545 49.9306ZM51.4746 57.084C51.4746 59.5438 51.2988 62.2542 50.9446 65.2172L52.9304 65.4547C53.2923 62.4281 53.4746 59.6372 53.4746 57.084H51.4746ZM50.9447 65.2159C50.5922 68.1319 50.0312 71.0662 49.2609 74.0191L51.1961 74.5239C51.9883 71.4872 52.5666 68.4645 52.9303 65.4559L50.9447 65.2159ZM49.2609 74.0191C48.493 76.9625 47.5015 79.8089 46.2865 82.5587L48.1159 83.3671C49.3748 80.5179 50.4015 77.57 51.1961 74.5239L49.2609 74.0191ZM46.2882 82.5548C45.0841 85.2482 43.6319 87.6288 41.935 89.7027L43.4829 90.9692C45.3017 88.7462 46.8443 86.2115 48.1141 83.371L46.2882 82.5548ZM41.935 89.7027C40.2544 91.7569 38.3004 93.399 36.071 94.6376L37.0423 96.3859C39.5004 95.0203 41.648 93.2119 43.4829 90.9692L41.935 89.7027ZM36.0752 94.6352C33.9274 95.815 31.4757 96.416 28.6953 96.416V98.416C31.7743 98.416 34.5635 97.7475 37.0381 96.3882L36.0752 94.6352ZM28.6953 96.416C26.0349 96.416 23.6544 95.9937 21.5402 95.1664L20.8114 97.0289C23.1894 97.9594 25.8218 98.416 28.6953 98.416V96.416ZM21.5402 95.1664C19.4029 94.3301 17.5221 93.1725 15.89 91.6943L14.5475 93.1768C16.3659 94.8236 18.4565 96.1074 20.8114 97.0289L21.5402 95.1664ZM15.897 91.7007C14.2816 90.2095 12.8777 88.4492 11.6875 86.4133L9.96092 87.4227C11.2447 89.6185 12.7705 91.5366 14.5405 93.1704L15.897 91.7007ZM11.6908 86.419C10.4896 84.3326 9.49152 82.0843 8.69797 79.6719L6.79812 80.2969C7.63218 82.8324 8.68489 85.2064 9.9576 87.4169L11.6908 86.419ZM8.70275 79.6868C7.93856 77.235 7.36397 74.6513 6.98042 71.9344L5.00005 72.214C5.39775 75.031 5.99504 77.7207 6.79335 80.2819L8.70275 79.6868ZM6.98196 71.9459C6.62948 69.2221 6.45312 66.4655 6.45312 63.6758H4.45312C4.45312 66.5501 4.63484 69.3924 4.9985 72.2026L6.98196 71.9459ZM71.6152 34.1348L70.9018 33.4341L71.6152 34.1348ZM69.0762 44.0469L68.0823 44.1573L68.0828 44.1615L69.0762 44.0469ZM69.6133 46.6836L70.3204 47.3907L70.7365 46.9746L70.5748 46.4089L69.6133 46.6836ZM67.7578 47.9531L67.3639 47.034L67.3556 47.0375L67.3474 47.0412L67.7578 47.9531ZM62.7285 39.8965L63.6359 40.317L63.6396 40.3087L62.7285 39.8965ZM65.2188 35.9414L64.4554 35.2955L64.4505 35.3012L64.4457 35.3071L65.2188 35.9414ZM68.9785 32.377L69.59 33.1683L69.601 33.1596L68.9785 32.377ZM73.5684 29.4473L74.0156 30.3417L74.0225 30.3382L73.5684 29.4473ZM78.6953 27.4453L78.4322 26.4805L78.4277 26.4818L78.6953 27.4453ZM91 27.9336L90.6311 28.8632L90.644 28.8681L91 27.9336ZM96.2246 31.2539L96.9317 30.5468L96.2246 31.2539ZM99.4961 36.4297L98.5585 36.7775L98.5604 36.7825L99.4961 36.4297ZM98.9102 51.4688L97.9768 51.1098L97.9734 51.1188L98.9102 51.4688ZM93.4414 61.4785L94.2644 62.0466L94.2667 62.0432L93.4414 61.4785ZM83.3828 73.9785L82.6377 73.3116L82.6374 73.3119L83.3828 73.9785ZM68.0996 89.9941L67.3925 89.287L65.5984 91.0812L68.1341 90.9935L68.0996 89.9941ZM90.707 89.2129L90.6776 88.2133L90.6725 88.2135L90.707 89.2129ZM93.6367 89.0176L93.7513 90.011L93.7673 90.0091L93.7833 90.0068L93.6367 89.0176ZM95.9805 88.0898L96.5617 88.9036L96.5743 88.8946L96.5865 88.8853L95.9805 88.0898ZM97.8848 85.6973L97.0181 85.1983L97.0124 85.2083L97.0069 85.2184L97.8848 85.6973ZM99.6914 81.1074L99.828 80.1168L98.9758 79.9992L98.7323 80.8244L99.6914 81.1074ZM102.523 81.498L103.487 81.7646L103.792 80.6635L102.66 80.5074L102.523 81.498ZM101.4 85.6973L102.367 85.9518L102.369 85.9456L101.4 85.6973ZM100.521 89.2617L99.5466 89.0389L99.5442 89.0495L99.542 89.0601L100.521 89.2617ZM99.8867 92.582L98.9019 92.4082L98.8998 92.4202L98.898 92.4322L99.8867 92.582ZM99.3984 96V97H100.272L100.389 96.1339L99.3984 96ZM60.2383 96L59.3393 96.438L59.6131 97H60.2383V96ZM59.3105 94.0957L58.571 93.4226L58.1146 93.924L58.4116 94.5337L59.3105 94.0957ZM74.1055 78.666L73.3762 77.9818L73.3717 77.9866L74.1055 78.666ZM81.1367 70.6582L80.3677 70.0189L80.3632 70.0245L81.1367 70.6582ZM87.0449 62.3574L86.1909 61.8371L86.1866 61.8444L87.0449 62.3574ZM91.0977 53.7148L90.1511 53.3924L90.149 53.3986L91.0977 53.7148ZM89.1445 34.7695L88.4425 35.4817L88.4476 35.4867L89.1445 34.7695ZM79.7207 30.4004C75.9518 30.4004 72.9467 31.352 70.9018 33.4341L72.3287 34.8355C73.8645 33.2717 76.2631 32.4004 79.7207 32.4004V30.4004ZM70.9018 33.4341C68.8904 35.482 67.9297 38.2119 67.9297 41.5078H69.9297C69.9297 38.6188 70.7594 36.4333 72.3287 34.8355L70.9018 33.4341ZM67.9297 41.5078C67.9297 42.3615 67.9809 43.2448 68.0823 44.1573L70.0701 43.9364C69.9761 43.0911 69.9297 42.2817 69.9297 41.5078H67.9297ZM68.0828 44.1615C68.1873 45.0676 68.378 46.0002 68.6518 46.9583L70.5748 46.4089C70.3277 45.5441 70.1603 44.7188 70.0696 43.9323L68.0828 44.1615ZM68.9062 45.9765C68.438 46.4447 67.9245 46.7937 67.3639 47.034L68.1517 48.8723C68.9583 48.5266 69.6818 48.0293 70.3204 47.3907L68.9062 45.9765ZM67.3474 47.0412C66.8128 47.2818 66.3011 47.3926 65.8047 47.3926V49.3926C66.6104 49.3926 67.4007 49.2104 68.1682 48.865L67.3474 47.0412ZM65.8047 47.3926C65.0303 47.3926 64.3402 47.1239 63.6985 46.5336L62.3444 48.0055C63.3304 48.9125 64.4958 49.3926 65.8047 49.3926V47.3926ZM63.6985 46.5336C63.164 46.0418 62.8008 45.2039 62.8008 43.8027H60.8008C60.8008 45.5265 61.2514 46.9999 62.3444 48.0055L63.6985 46.5336ZM62.8008 43.8027C62.8008 42.6997 63.0688 41.5406 63.6358 40.3169L61.8212 39.476C61.1513 40.9216 60.8008 42.3667 60.8008 43.8027H62.8008ZM63.6396 40.3087C64.2188 39.0284 65.0005 37.7839 65.9918 36.5757L64.4457 35.3071C63.3537 36.638 62.4752 38.0302 61.8174 39.4843L63.6396 40.3087ZM65.9821 36.5873C67.0072 35.376 68.2084 34.2358 69.59 33.1682L68.3671 31.5857C66.884 32.7317 65.5788 33.9678 64.4554 35.2955L65.9821 36.5873ZM69.601 33.1596C70.9793 32.0632 72.4505 31.1242 74.0156 30.3417L73.1211 28.5528C71.431 29.3979 69.8424 30.412 68.356 31.5944L69.601 33.1596ZM74.0225 30.3382C75.6244 29.5215 77.271 28.8788 78.963 28.4088L78.4277 26.4818C76.604 26.9884 74.8326 27.6803 73.1142 28.5564L74.0225 30.3382ZM78.9584 28.4101C80.6678 27.9439 82.3535 27.7129 84.0176 27.7129V25.7129C82.1661 25.7129 80.3035 25.9702 78.4322 26.4805L78.9584 28.4101ZM84.0176 27.7129C86.5178 27.7129 88.7169 28.1035 90.6312 28.8631L91.3688 27.0041C89.1816 26.1361 86.7257 25.7129 84.0176 25.7129V27.7129ZM90.644 28.8681C92.5742 29.6034 94.193 30.6365 95.5175 31.961L96.9317 30.5468C95.3916 29.0067 93.5274 27.8263 91.356 26.9991L90.644 28.8681ZM95.5175 31.961C96.8417 33.2852 97.8567 34.8856 98.5585 36.7775L100.434 36.0819C99.6381 33.9373 98.4721 32.0872 96.9317 30.5468L95.5175 31.961ZM98.5604 36.7825C99.2612 38.6412 99.6191 40.717 99.6191 43.0215H101.619C101.619 40.5082 101.228 38.1895 100.432 36.0769L98.5604 36.7825ZM99.6191 43.0215C99.6191 45.5472 99.0802 48.2409 97.9768 51.1098L99.8435 51.8277C101.019 48.7721 101.619 45.8343 101.619 43.0215H99.6191ZM97.9734 51.1188C96.9041 53.9808 95.127 57.2441 92.6161 60.9138L94.2667 62.0432C96.834 58.291 98.7027 54.8812 99.8469 51.8187L97.9734 51.1188ZM92.6184 60.9104C90.1105 64.5437 86.7865 68.6766 82.6377 73.3116L84.1279 74.6455C88.3125 69.9705 91.6942 65.7701 94.2644 62.0466L92.6184 60.9104ZM82.6374 73.3119C78.5193 77.9164 73.4386 83.2409 67.3925 89.287L68.8067 90.7012C74.87 84.638 79.9781 79.2855 84.1282 74.6452L82.6374 73.3119ZM68.1341 90.9935L90.7416 90.2123L90.6725 88.2135L68.0651 88.9947L68.1341 90.9935ZM90.7364 90.2125C91.8638 90.1793 92.8698 90.1127 93.7513 90.011L93.5221 88.0242C92.711 88.1178 91.7638 88.1814 90.6776 88.2133L90.7364 90.2125ZM93.7833 90.0068C94.8096 89.8547 95.7417 89.4893 96.5617 88.9036L95.3992 87.2761C94.852 87.667 94.2216 87.92 93.4902 88.0284L93.7833 90.0068ZM96.5865 88.8853C97.4189 88.2511 98.1358 87.3253 98.7627 86.1761L97.0069 85.2184C96.4618 86.2177 95.9093 86.8869 95.3744 87.2944L96.5865 88.8853ZM98.7514 86.1962C99.4265 85.0237 100.055 83.4085 100.651 81.3904L98.7323 80.8244C98.1559 82.7777 97.58 84.2224 97.0181 85.1983L98.7514 86.1962ZM99.5548 82.098L102.387 82.4887L102.66 80.5074L99.828 80.1168L99.5548 82.098ZM101.56 81.2315C101.135 82.7663 100.759 84.1722 100.432 85.4489L102.369 85.9456C102.693 84.6833 103.065 83.2897 103.487 81.7646L101.56 81.2315ZM100.433 85.4428C100.105 86.6893 99.8097 87.888 99.5466 89.0389L101.496 89.4845C101.754 88.3568 102.044 87.1792 102.367 85.9518L100.433 85.4428ZM99.542 89.0601C99.3123 90.176 99.0989 91.2921 98.9019 92.4082L100.872 92.7558C101.065 91.6584 101.275 90.5609 101.501 89.4634L99.542 89.0601ZM98.898 92.4322C98.7344 93.5123 98.5708 94.657 98.4074 95.8661L100.389 96.1339C100.552 94.9342 100.714 93.8002 100.875 92.7318L98.898 92.4322ZM99.3984 95H60.2383V97H99.3984V95ZM61.1373 95.562L60.2095 93.6577L58.4116 94.5337L59.3393 96.438L61.1373 95.562ZM60.0501 94.7688C62.3503 92.2419 64.7645 89.7141 67.293 87.1856L65.8788 85.7714C63.3292 88.321 60.8932 90.8714 58.571 93.4226L60.0501 94.7688ZM67.293 87.1856C69.8736 84.6051 72.389 81.9917 74.8392 79.3454L73.3717 77.9866C70.9391 80.6138 68.4415 83.2087 65.8788 85.7714L67.293 87.1856ZM74.8347 79.3503C77.3235 76.6978 79.682 74.0117 81.9103 71.2919L80.3632 70.0245C78.1643 72.7084 75.8354 75.3608 73.3762 77.9818L74.8347 79.3503ZM81.9057 71.2975C84.1827 68.5585 86.1824 65.7496 87.9033 62.8705L86.1866 61.8444C84.522 64.6293 82.5829 67.3543 80.3677 70.0189L81.9057 71.2975ZM87.8989 62.8777C89.6605 59.9861 91.0443 57.0372 92.0463 54.0311L90.149 53.3986C89.1979 56.2519 87.8799 59.0647 86.1909 61.8372L87.8989 62.8777ZM92.0442 54.0373C93.0887 50.9714 93.6113 47.8188 93.6113 44.584H91.6113C91.6113 47.5991 91.1249 50.5338 90.1511 53.3924L92.0442 54.0373ZM93.6113 44.584C93.6113 40.1104 92.4045 36.5432 89.8415 34.0524L88.4476 35.4867C90.507 37.488 91.6113 40.4638 91.6113 44.584H93.6113ZM89.8465 34.0574C87.3365 31.5831 83.9178 30.4004 79.7207 30.4004V32.4004C83.5315 32.4004 86.3953 33.4637 88.4425 35.4817L89.8465 34.0574Z" fill="#050B19"/>
<rect x="0.5" y="1.308" width="62" height="2.232" rx="1.116" stroke="#050B19"/>
</svg>
