<svg width="105" height="125" viewBox="0 0 105 125" fill="none" xmlns="http://www.w3.org/2000/svg">
<path d="M22.7148 31.791L23.2005 32.6652L23.2059 32.6622L22.7148 31.791ZM18.2227 35.7461L19.0189 36.3512L19.0245 36.3436L18.2227 35.7461ZM15.1953 41.3613L14.2571 41.0149L14.2526 41.0277L15.1953 41.3613ZM13.3887 47.9043L12.4086 47.7054L12.4065 47.7165L13.3887 47.9043ZM12.5098 54.4961L11.5125 54.4217L11.512 54.4291L11.5115 54.4365L12.5098 54.4961ZM12.6074 67.3379L11.6103 67.4156L11.6116 67.4296L12.6074 67.3379ZM15.6348 81.9375L14.6915 82.2696L14.6944 82.2777L14.6973 82.2857L15.6348 81.9375ZM18.7109 87.9922L17.8859 88.5575L17.8931 88.5677L18.7109 87.9922ZM23.0566 92.2402L22.5134 93.0798L22.5229 93.086L22.5325 93.0919L23.0566 92.2402ZM35.0195 92.0938L35.578 92.9234L35.5887 92.9159L35.0195 92.0938ZM39.3164 87.5039L38.4692 86.9726L38.4668 86.9765L39.3164 87.5039ZM42.1973 80.9609L43.1568 81.2424L43.1578 81.239L42.1973 80.9609ZM43.8086 73.3438L42.8196 73.1954L42.8179 73.2075L43.8086 73.3438ZM43.8086 47.123L42.8272 47.3153L42.8296 47.327L43.8086 47.123ZM38.0957 34.3301L37.3885 35.0372L37.3981 35.0465L38.0957 34.3301ZM34.5312 31.6445L34.0542 32.5234L34.069 32.5314L34.084 32.539L34.5312 31.6445ZM31.3086 30.5215L31.1442 31.5079L31.1624 31.5109L31.1806 31.5133L31.3086 30.5215ZM7.62695 46.4395L8.58224 46.7351L8.58322 46.732L7.62695 46.4395ZM10.8496 38.7246L9.97489 38.24L9.97263 38.2441L10.8496 38.7246ZM15.5859 32.4746L16.2801 33.1945L16.2803 33.1942L15.5859 32.4746ZM21.9336 28.2754L22.3245 29.1959L22.3305 29.1932L21.9336 28.2754ZM36.875 27.9336L36.5061 28.8631L36.5111 28.8651L36.875 27.9336ZM42.4414 31.3027L41.7807 32.0535L41.7882 32.0599L42.4414 31.3027ZM46.7383 36.3809L45.887 36.9058L45.8935 36.9159L46.7383 36.3809ZM49.7656 42.6797L48.821 43.0082L48.8254 43.0203L49.7656 42.6797ZM51.5723 49.7598L50.5845 49.9157L50.5857 49.9231L50.587 49.9306L51.5723 49.7598ZM51.6699 65.3359L52.6627 65.4559L52.6628 65.4547L51.6699 65.3359ZM46.9336 82.9629L47.8465 83.371L47.8483 83.3671L46.9336 82.9629ZM36.2891 95.5117L36.7705 96.3882L36.7747 96.3859L36.2891 95.5117ZM14.9512 92.4355L14.2729 93.1704L14.2799 93.1768L14.9512 92.4355ZM10.5566 86.918L9.69 87.4169L9.69334 87.4227L10.5566 86.918ZM7.48047 79.9844L6.52577 80.2819L6.5281 80.2894L6.53054 80.2969L7.48047 79.9844ZM5.72266 72.0742L4.73086 72.2026L4.73248 72.214L5.72266 72.0742ZM29.0137 29.2773C26.4626 29.2773 24.188 29.8128 22.2238 30.9199L23.2059 32.6622C24.8224 31.751 26.7471 31.2773 29.0137 31.2773V29.2773ZM22.2292 30.9169C20.3439 31.9643 18.7398 33.3783 17.4208 35.1486L19.0245 36.3436C20.1795 34.7936 21.5702 33.5709 23.2005 32.6652L22.2292 30.9169ZM17.4265 35.141C16.1238 36.855 15.0692 38.8158 14.2572 41.015L16.1334 41.7077C16.8839 39.6751 17.8475 37.8924 19.0188 36.3512L17.4265 35.141ZM14.2526 41.0277C13.488 43.1885 12.8735 45.4146 12.4086 47.7055L14.3687 48.1031C14.8153 45.9018 15.4052 43.7659 16.138 41.6949L14.2526 41.0277ZM12.4065 47.7165C11.9763 49.9664 11.6782 52.2015 11.5125 54.4217L13.507 54.5705C13.6668 52.4287 13.9547 50.2693 14.3709 48.0921L12.4065 47.7165ZM11.5115 54.4365C11.3804 56.6328 11.3145 58.6225 11.3145 60.4043H13.3145C13.3145 58.6704 13.3787 56.7214 13.508 54.5557L11.5115 54.4365ZM11.3145 60.4043C11.3145 62.5504 11.4135 64.8879 11.6104 67.4156L13.6044 67.2602C13.4107 64.7749 13.3145 62.49 13.3145 60.4043H11.3145ZM11.6116 67.4296C11.8427 69.9383 12.2057 72.4462 12.7006 74.9534L14.6627 74.5661C14.181 72.1254 13.8279 69.6854 13.6032 67.2462L11.6116 67.4296ZM12.7006 74.9534C13.1979 77.473 13.8614 79.9119 14.6915 82.2696L16.578 81.6054C15.7806 79.3407 15.142 76.9944 14.6627 74.5661L12.7006 74.9534ZM14.6973 82.2857C15.5683 84.6305 16.6294 86.7235 17.886 88.5574L19.5359 87.427C18.3836 85.7453 17.394 83.8018 16.5722 81.5893L14.6973 82.2857ZM17.8931 88.5677C19.1974 90.4211 20.7366 91.9301 22.5134 93.0798L23.5999 91.4007C22.0564 90.4019 20.6984 89.0789 19.5287 87.4167L17.8931 88.5677ZM22.5325 93.0919C24.4003 94.2413 26.5391 94.8027 28.916 94.8027V92.8027C26.8659 92.8027 25.0984 92.3225 23.5807 91.3886L22.5325 93.0919ZM28.916 94.8027C31.4577 94.8027 33.6944 94.1911 35.5779 92.9233L34.4612 91.2642C32.9593 92.275 31.127 92.8027 28.916 92.8027V94.8027ZM35.5887 92.9159C37.4029 91.66 38.9277 90.0264 40.166 88.0313L38.4668 86.9765C37.3614 88.7575 36.0216 90.1837 34.4503 91.2716L35.5887 92.9159ZM40.1636 88.0352C41.4223 86.0281 42.418 83.7613 43.1568 81.2424L41.2377 80.6795C40.5443 83.0434 39.6194 85.1386 38.4692 86.9726L40.1636 88.0352ZM43.1578 81.239C43.8877 78.7176 44.4347 76.1311 44.7993 73.48L42.8179 73.2075C42.4663 75.7647 41.9391 78.2564 41.2367 80.6829L43.1578 81.239ZM44.7975 73.4921C45.1929 70.8562 45.4567 68.2357 45.5886 65.6306L43.5911 65.5295C43.4626 68.0677 43.2055 70.6229 42.8197 73.1954L44.7975 73.4921ZM45.5886 65.6306C45.7195 63.0454 45.7852 60.6682 45.7852 58.5H43.7852C43.7852 60.6287 43.7206 62.9716 43.5911 65.5295L45.5886 65.6306ZM45.7852 58.5C45.7852 53.9966 45.4569 50.1317 44.7876 46.9191L42.8296 47.327C43.4624 50.3644 43.7852 54.0841 43.7852 58.5H45.7852ZM44.7899 46.9308C44.1615 43.7222 43.3434 41.0174 42.3215 38.8373L40.5106 39.6862C41.4417 41.6727 42.2187 44.2087 42.8272 47.3153L44.7899 46.9308ZM42.3215 38.8373C41.3098 36.679 40.14 34.9249 38.7933 33.6136L37.3981 35.0465C38.5253 36.1441 39.5691 37.6777 40.5106 39.6862L42.3215 38.8373ZM38.8028 33.623C37.5439 32.3641 36.2704 31.3961 34.9785 30.7501L34.084 32.539C35.1359 33.0649 36.2386 33.8872 37.3886 35.0372L38.8028 33.623ZM35.0083 30.7657C33.789 30.1038 32.5965 29.6794 31.4366 29.5297L31.1806 31.5133C32.039 31.624 32.9948 31.9483 34.0542 32.5234L35.0083 30.7657ZM31.473 29.5351C30.4774 29.3692 29.649 29.2773 29.0137 29.2773V31.2773C29.4851 31.2773 30.1867 31.3483 31.1442 31.5079L31.473 29.5351ZM6.18555 63.6758C6.18555 60.8237 6.37781 57.9545 6.76271 55.0677L4.78026 54.8034C4.38391 57.776 4.18555 60.7336 4.18555 63.6758H6.18555ZM6.76271 55.0677C7.14619 52.1916 7.75294 49.4144 8.58224 46.7351L6.67167 46.1438C5.80825 48.9333 5.17803 51.8201 4.78026 54.8034L6.76271 55.0677ZM8.58322 46.732C9.41096 44.0259 10.4594 41.5177 11.7266 39.2051L9.97263 38.2441C8.63565 40.6841 7.53565 43.3192 6.67069 46.1469L8.58322 46.732ZM11.7243 39.2092C13.015 36.8798 14.5347 34.8775 16.2801 33.1945L14.8918 31.7548C12.9914 33.5873 11.3535 35.7517 9.9749 38.24L11.7243 39.2092ZM16.2803 33.1942C18.0476 31.4889 20.0606 30.1572 22.3245 29.1958L21.5427 27.3549C19.054 28.4118 16.8352 29.8796 14.8916 31.755L16.2803 33.1942ZM22.3305 29.1932C24.5963 28.2135 27.1763 27.7129 30.0879 27.7129V25.7129C26.9448 25.7129 24.0886 26.254 21.5367 27.3575L22.3305 29.1932ZM30.0879 27.7129C32.4508 27.7129 34.5862 28.1012 36.5062 28.8631L37.2438 27.0041C35.0623 26.1384 32.6729 25.7129 30.0879 25.7129V27.7129ZM36.5111 28.8651C38.4893 29.6377 40.2436 30.7007 41.7808 32.0534L43.102 30.552C41.384 29.0402 39.4274 27.857 37.2389 27.0021L36.5111 28.8651ZM41.7882 32.0599C43.3673 33.4223 44.7339 35.0356 45.8871 36.9057L47.5895 35.856C46.3338 33.8198 44.8358 32.0478 43.0946 30.5456L41.7882 32.0599ZM45.8935 36.9159C47.0882 38.8024 48.0644 40.8325 48.8211 43.0082L50.7101 42.3512C49.9044 40.0347 48.8623 37.8656 47.5831 35.8458L45.8935 36.9159ZM48.8254 43.0203C49.6165 45.2037 50.2033 47.5017 50.5845 49.9157L52.56 49.6038C52.1599 47.0699 51.5423 44.6479 50.7058 42.339L48.8254 43.0203ZM50.587 49.9306C51.0005 52.3164 51.207 54.7007 51.207 57.084H53.207C53.207 54.5845 52.9904 52.0859 52.5576 49.589L50.587 49.9306ZM51.207 57.084C51.207 59.5438 51.0313 62.2542 50.677 65.2172L52.6628 65.4547C53.0247 62.4281 53.207 59.6372 53.207 57.084H51.207ZM50.6771 65.2159C50.3247 68.1319 49.7636 71.0662 48.9933 74.0191L50.9286 74.5239C51.7207 71.4872 52.299 68.4645 52.6627 65.4559L50.6771 65.2159ZM48.9933 74.0191C48.2255 76.9625 47.234 79.8089 46.0189 82.5587L47.8483 83.3671C49.1072 80.5179 50.1339 77.57 50.9286 74.5239L48.9933 74.0191ZM46.0207 82.5548C44.8166 85.2482 43.3643 87.6288 41.6674 89.7027L43.2154 90.9692C45.0341 88.7462 46.5767 86.2115 47.8465 83.371L46.0207 82.5548ZM41.6674 89.7027C39.9868 91.7569 38.0328 93.399 35.8034 94.6376L36.7747 96.3859C39.2328 95.0203 41.3804 93.2119 43.2154 90.9692L41.6674 89.7027ZM35.8076 94.6352C33.6598 95.815 31.2082 96.416 28.4277 96.416V98.416C31.5067 98.416 34.2959 97.7475 36.7705 96.3882L35.8076 94.6352ZM28.4277 96.416C25.7673 96.416 23.3868 95.9937 21.2726 95.1664L20.5438 97.0289C22.9218 97.9594 25.5543 98.416 28.4277 98.416V96.416ZM21.2726 95.1664C19.1353 94.3301 17.2545 93.1725 15.6225 91.6943L14.2799 93.1768C16.0983 94.8236 18.1889 96.1074 20.5438 97.0289L21.2726 95.1664ZM15.6295 91.7007C14.014 90.2095 12.6102 88.4492 11.4199 86.4133L9.69334 87.4227C10.9771 89.6185 12.503 91.5366 14.2729 93.1704L15.6295 91.7007ZM11.4233 86.419C10.222 84.3326 9.22394 82.0843 8.43039 79.6719L6.53054 80.2969C7.3646 82.8324 8.41731 85.2064 9.69002 87.4169L11.4233 86.419ZM8.43517 79.6868C7.67098 77.235 7.09639 74.6513 6.71284 71.9344L4.73248 72.214C5.13017 75.031 5.72746 77.7207 6.52577 80.2819L8.43517 79.6868ZM6.71439 71.9459C6.3619 69.2221 6.18555 66.4655 6.18555 63.6758H4.18555C4.18555 66.5501 4.36726 69.3924 4.73093 72.2026L6.71439 71.9459ZM62.5098 96.293L62.8965 95.3708L62.8837 95.3654L62.8708 95.3604L62.5098 96.293ZM59.9707 94.6816L59.2473 95.3721L59.2554 95.3805L59.2636 95.3887L59.9707 94.6816ZM59.7754 89.2129L58.9257 88.6855L58.9206 88.6939L59.7754 89.2129ZM61.8262 86.8203L62.5521 86.1326L61.9068 85.4514L61.186 86.0521L61.8262 86.8203ZM67.5391 91.0195L67.1209 91.9279L67.1295 91.9319L67.1382 91.9357L67.5391 91.0195ZM86.9727 87.6992L87.6302 88.4527L87.6379 88.4459L86.9727 87.6992ZM91.2207 81.7422L90.3074 81.3349L90.3048 81.3407L91.2207 81.7422ZM89.2676 63.9688L88.5863 64.7008L88.5916 64.7057L88.5969 64.7105L89.2676 63.9688ZM77.5977 60.7949L77.6502 61.7935L77.6737 61.7923L77.6972 61.79L77.5977 60.7949ZM75.6445 60.9902L75.5031 60.0003L75.4962 60.0013L75.6445 60.9902ZM73.6914 61.3809L73.4489 60.4106L73.4369 60.4138L73.6914 61.3809ZM71.9336 61.918L70.9674 62.1756L71.2461 63.2211L72.2664 62.861L71.9336 61.918ZM71.1523 58.9883L70.853 58.0341L69.9394 58.3208L70.1861 59.2459L71.1523 58.9883ZM73.6426 58.207L73.3443 57.2526L73.3432 57.2529L73.6426 58.207ZM78.6719 56.1074L79.1256 56.9986L79.1317 56.9954L78.6719 56.1074ZM83.7012 52.5918L84.3762 53.3296L84.3769 53.329L83.7012 52.5918ZM87.5586 47.5137L88.447 47.9727L88.4501 47.9667L87.5586 47.5137ZM88.4375 37.0645L87.5 37.4127L87.5034 37.4216L88.4375 37.0645ZM86.5332 34.0859L85.8124 34.779L85.8192 34.7861L85.8261 34.793L86.5332 34.0859ZM83.4082 32.084L83.0201 33.0056L83.0346 33.0117L83.0492 33.0173L83.4082 32.084ZM74.7656 31.9375L75.053 32.8953L75.0639 32.8921L75.0747 32.8885L74.7656 31.9375ZM71.0547 33.5488L71.5508 34.4171L71.5586 34.4126L71.0547 33.5488ZM67.7344 35.7949L68.35 36.583L68.3532 36.5804L67.7344 35.7949ZM64.6582 38.2852L63.9025 38.9401L64.5469 39.6836L65.3008 39.0513L64.6582 38.2852ZM62.7539 36.0879L62.0568 35.3709L61.3797 36.0292L61.9982 36.7428L62.7539 36.0879ZM66.5137 32.7188L67.152 33.4885L67.1575 33.484L67.1629 33.4793L66.5137 32.7188ZM70.9082 29.6914L70.433 28.8115L70.4256 28.8156L70.9082 29.6914ZM88.7793 27.5918L88.4522 28.5368L88.463 28.5405L88.4739 28.544L88.7793 27.5918ZM95.6641 33.5977L94.7385 33.9763L94.7416 33.9838L95.6641 33.5977ZM95.2734 43.998L96.1805 44.4192L96.1833 44.4131L95.2734 43.998ZM88.1445 53.1777L87.5113 52.4037L87.5026 52.411L88.1445 53.1777ZM84.3359 55.9121L83.8398 55.0439L80.4901 56.958L84.3478 56.912L84.3359 55.9121ZM96.4941 60.2578L95.7785 60.9564L95.787 60.9649L96.4941 60.2578ZM99.4727 64.9941L98.5309 65.3305L98.5329 65.3359L99.4727 64.9941ZM99.0332 78.4707L98.1021 78.1058L98.0979 78.1168L99.0332 78.4707ZM95.2734 85.0625L94.4938 84.4362L94.4876 84.4441L95.2734 85.0625ZM89.7559 90.3359L89.1699 89.5256L89.1639 89.5299L89.7559 90.3359ZM83.1152 94.1934L82.7091 93.2795L82.7043 93.2817L83.1152 94.1934ZM75.9863 96.5859L75.7653 95.6107L75.7624 95.6113L75.9863 96.5859ZM69.0527 96.416C68.0967 96.416 67.0527 96.3389 65.9188 96.1814L65.6437 98.1624C66.8536 98.3304 67.9906 98.416 69.0527 98.416V96.416ZM65.9188 96.1814C64.8257 96.0296 63.8197 95.7579 62.8965 95.3708L62.123 97.2152C63.2181 97.6744 64.3931 97.9887 65.6437 98.1624L65.9188 96.1814ZM62.8708 95.3604C61.9759 95.014 61.2519 94.5486 60.6778 93.9745L59.2636 95.3887C60.0567 96.1819 61.0254 96.7907 62.1488 97.2255L62.8708 95.3604ZM60.6941 93.9912C60.2039 93.4777 59.9453 92.8371 59.9453 91.9961H57.9453C57.9453 93.3035 58.3703 94.4533 59.2473 95.3721L60.6941 93.9912ZM59.9453 91.9961C59.9453 91.258 60.1592 90.5076 60.6302 89.7319L58.9206 88.6939C58.2848 89.7411 57.9453 90.8462 57.9453 91.9961H59.9453ZM60.625 89.7403C61.1597 88.8788 61.7746 88.165 62.4664 87.5885L61.186 86.0521C60.3152 86.7777 59.563 87.6589 58.9258 88.6855L60.625 89.7403ZM61.1002 87.5081C62.9341 89.4439 64.9401 90.9241 67.1209 91.9279L67.9572 90.1112C66.0364 89.227 64.2338 87.9077 62.5521 86.1326L61.1002 87.5081ZM67.1382 91.9357C69.3202 92.8903 71.4264 93.3867 73.4473 93.3867V91.3867C71.7572 91.3867 69.9246 90.9717 67.9399 90.1034L67.1382 91.9357ZM73.4473 93.3867C76.0908 93.3867 78.6392 92.9797 81.0877 92.1635L80.4553 90.2662C78.2163 91.0125 75.8819 91.3867 73.4473 91.3867V93.3867ZM81.0877 92.1635C83.552 91.3421 85.7361 90.1056 87.6302 88.4526L86.3151 86.9458C84.6284 88.4178 82.6785 89.5251 80.4553 90.2662L81.0877 92.1635ZM87.6379 88.4459C89.5442 86.7475 91.042 84.6408 92.1366 82.1437L90.3048 81.3407C89.3161 83.5962 87.9818 85.4609 86.3075 86.9526L87.6379 88.4459ZM92.134 82.1495C93.2766 79.5873 93.832 76.6275 93.832 73.2949H91.832C91.832 76.4077 91.3133 79.0794 90.3074 81.3349L92.134 82.1495ZM93.832 73.2949C93.832 69.0248 92.5779 65.6136 89.9382 63.227L88.5969 64.7105C90.7098 66.6208 91.832 69.4271 91.832 73.2949H93.832ZM89.9488 63.2367C87.3655 60.8328 83.7868 59.6973 79.3555 59.6973V61.6973C83.4528 61.6973 86.4821 62.7427 88.5863 64.7008L89.9488 63.2367ZM79.3555 59.6973C78.7943 59.6973 78.1743 59.7323 77.4982 59.7999L77.6972 61.79C78.3231 61.7274 78.875 61.6973 79.3555 61.6973V59.6973ZM77.5451 59.7963C76.8937 59.8306 76.2129 59.8989 75.5031 60.0003L75.786 61.9802C76.4434 61.8863 77.0646 61.8244 77.6502 61.7935L77.5451 59.7963ZM75.4962 60.0013C74.8129 60.1038 74.1304 60.2403 73.4489 60.4107L73.9339 62.351C74.5545 62.1959 75.1741 62.072 75.7929 61.9792L75.4962 60.0013ZM73.4369 60.4138C72.7943 60.5829 72.1821 60.7698 71.6008 60.975L72.2664 62.861C72.7919 62.6755 73.3515 62.5044 73.9459 62.3479L73.4369 60.4138ZM72.8998 61.6603L72.1186 58.7306L70.1861 59.2459L70.9674 62.1756L72.8998 61.6603ZM71.4517 59.9424L73.9419 59.1612L73.3432 57.2529L70.853 58.0341L71.4517 59.9424ZM73.9409 59.1615C75.5673 58.6533 77.296 57.93 79.1256 56.9986L78.2182 55.2163C76.467 56.1078 74.8429 56.7842 73.3443 57.2526L73.9409 59.1615ZM79.1317 56.9954C81.0334 56.0106 82.7821 54.788 84.3762 53.3296L83.0262 51.854C81.5604 53.195 79.9561 54.3162 78.212 55.2194L79.1317 56.9954ZM84.3769 53.329C86.0293 51.8142 87.3859 50.0264 88.447 47.9727L86.6702 47.0547C85.713 48.9072 84.498 50.5048 83.0254 51.8546L84.3769 53.329ZM88.4501 47.9667C89.5425 45.8171 90.0723 43.3455 90.0723 40.5801H88.0723C88.0723 43.0881 87.5929 45.2389 86.6671 47.0606L88.4501 47.9667ZM90.0723 40.5801C90.0723 39.2265 89.8402 37.9331 89.3716 36.7073L87.5034 37.4216C87.8811 38.4094 88.0723 39.4597 88.0723 40.5801H90.0723ZM89.3749 36.7163C88.9025 35.4443 88.19 34.3285 87.2403 33.3788L85.8261 34.793C86.5692 35.5361 87.1262 36.406 87.5001 37.4126L89.3749 36.7163ZM87.254 33.3928C86.3238 32.4254 85.1519 31.6832 83.7672 31.1506L83.0492 33.0173C84.2036 33.4613 85.115 34.0538 85.8124 34.779L87.254 33.3928ZM83.7963 31.1623C82.4111 30.5791 80.8253 30.3027 79.0625 30.3027V32.3027C80.62 32.3027 81.9314 32.5472 83.0201 33.0056L83.7963 31.1623ZM79.0625 30.3027C77.4096 30.3027 75.8714 30.5266 74.4565 30.9865L75.0747 32.8885C76.264 32.502 77.5904 32.3027 79.0625 32.3027V30.3027ZM74.4783 30.9797C73.1007 31.3929 71.791 31.9616 70.5508 32.685L71.5586 34.4126C72.6621 33.7689 73.8264 33.2633 75.053 32.8953L74.4783 30.9797ZM70.5585 32.6806C69.3746 33.3571 68.2269 34.1338 67.1155 35.0094L68.3532 36.5804C69.3903 35.7634 70.4562 35.0426 71.5508 34.4171L70.5585 32.6806ZM67.1187 35.0069C66.068 35.8278 65.0336 36.6652 64.0156 37.519L65.3008 39.0513C66.301 38.2125 67.3174 37.3897 68.35 36.5829L67.1187 35.0069ZM65.4139 37.6302L63.5096 35.433L61.9982 36.7428L63.9025 38.9401L65.4139 37.6302ZM63.451 36.8049C64.6029 35.685 65.8364 34.5795 67.152 33.4885L65.8753 31.949C64.5216 33.0716 63.2487 34.2121 62.0568 35.3709L63.451 36.8049ZM67.1629 33.4793C68.4442 32.3856 69.8528 31.4147 71.3908 30.5672L70.4256 28.8156C68.7735 29.7259 67.2525 30.7733 65.8644 31.9582L67.1629 33.4793ZM71.3834 30.5713C72.9408 29.7303 74.6623 29.0405 76.5519 28.5051L76.0067 26.5808C73.99 27.1522 72.1309 27.8947 70.4331 28.8115L71.3834 30.5713ZM76.5519 28.5051C78.4005 27.9813 80.5039 27.7129 82.8711 27.7129V25.7129C80.3555 25.7129 78.0643 25.9979 76.0067 26.5808L76.5519 28.5051ZM82.8711 27.7129C85.0329 27.7129 86.8875 27.9952 88.4522 28.5368L89.1064 26.6468C87.2856 26.0165 85.2015 25.7129 82.8711 25.7129V27.7129ZM88.4739 28.544C90.0918 29.063 91.3954 29.7827 92.4131 30.6841L93.7392 29.187C92.4783 28.0701 90.9173 27.2274 89.0847 26.6396L88.4739 28.544ZM92.4131 30.6841C93.4358 31.5899 94.2096 32.6833 94.7385 33.9763L96.5896 33.219C95.9467 31.6474 94.9952 30.2994 93.7392 29.187L92.4131 30.6841ZM94.7416 33.9838C95.2717 35.2502 95.543 36.6474 95.543 38.1875H97.543C97.543 36.4073 97.2283 34.7446 96.5865 33.2115L94.7416 33.9838ZM95.543 38.1875C95.543 40.061 95.1512 41.8564 94.3636 43.583L96.1833 44.4131C97.0884 42.4287 97.543 40.3505 97.543 38.1875H95.543ZM94.3664 43.5769C93.5528 45.3293 92.5523 46.955 91.3644 48.4555L92.9325 49.6969C94.2185 48.0724 95.3014 46.3126 96.1804 44.4192L94.3664 43.5769ZM91.3644 48.4555C90.1686 49.9659 88.8839 51.2808 87.5113 52.4038L88.7778 53.9517C90.2698 52.731 91.6543 51.3114 92.9325 49.6969L91.3644 48.4555ZM87.5026 52.411C86.1322 53.5583 84.912 54.4312 83.8398 55.0439L84.8321 56.7804C86.0385 56.091 87.3574 55.1409 88.7865 53.9445L87.5026 52.411ZM84.3478 56.912C86.987 56.8806 89.2313 57.2429 91.1038 57.9677L91.8258 56.1026C89.6619 55.265 87.1536 54.8785 84.324 54.9122L84.3478 56.912ZM91.1038 57.9677C93.0062 58.7041 94.5565 59.7045 95.7786 60.9563L97.2097 59.5593C95.7625 58.0768 93.9599 56.9287 91.8258 56.1026L91.1038 57.9677ZM95.787 60.9649C97.0142 62.1921 97.9284 63.6433 98.5309 65.3305L100.414 64.6578C99.7149 62.6991 98.6433 60.9928 97.2012 59.5507L95.787 60.9649ZM98.5329 65.3359C99.1418 67.0103 99.4492 68.7984 99.4492 70.707H101.449C101.449 68.5792 101.106 66.5587 100.412 64.6524L98.5329 65.3359ZM99.4492 70.707C99.4492 73.3578 98.9975 75.8211 98.1021 78.1058L99.9643 78.8356C100.957 76.3026 101.449 73.5901 101.449 70.707H99.4492ZM98.0979 78.1168C97.2233 80.4284 96.0222 82.5335 94.4938 84.4362L96.0531 85.6888C97.7148 83.6201 99.0202 81.3307 99.9685 78.8246L98.0979 78.1168ZM94.4876 84.4441C92.9844 86.3544 91.2131 88.0482 89.1699 89.5256L90.3418 91.1463C92.5304 89.5638 94.4375 87.7419 96.0593 85.6809L94.4876 84.4441ZM89.1639 89.5299C87.138 91.0177 84.9867 92.2673 82.7091 93.2795L83.5214 95.1072C85.9312 94.0361 88.207 92.7141 90.3478 91.1419L89.1639 89.5299ZM82.7043 93.2817C80.4534 94.2962 78.1406 95.0723 75.7653 95.6107L76.2074 97.5612C78.7149 96.9928 81.1547 96.1738 83.5261 95.105L82.7043 93.2817ZM75.7624 95.6113C73.4186 96.1498 71.1828 96.416 69.0527 96.416V98.416C71.3498 98.416 73.7363 98.1289 76.2102 97.5606L75.7624 95.6113Z" fill="#050B19"/>
<rect x="0.5" y="2.5" width="62" height="2" rx="1" stroke="#050B19"/>
</svg>
