<svg width="107" height="101" viewBox="0 0 107 101" fill="none" xmlns="http://www.w3.org/2000/svg">
<path d="M22.9336 31.791L23.4192 32.6652L23.4246 32.6622L22.9336 31.791ZM18.4414 35.7461L19.2376 36.3512L19.2433 36.3436L18.4414 35.7461ZM15.4141 41.3613L14.4759 41.0149L14.4713 41.0277L15.4141 41.3613ZM13.6074 47.9043L12.6273 47.7054L12.6252 47.7165L13.6074 47.9043ZM12.7285 54.4961L11.7313 54.4217L11.7307 54.4291L11.7303 54.4365L12.7285 54.4961ZM12.8262 67.3379L11.8291 67.4156L11.8304 67.4296L12.8262 67.3379ZM15.8535 81.9375L14.9103 82.2696L14.9131 82.2777L14.9161 82.2857L15.8535 81.9375ZM18.9297 87.9922L18.1047 88.5575L18.1119 88.5677L18.9297 87.9922ZM23.2754 92.2402L22.7321 93.0798L22.7416 93.086L22.7513 93.0919L23.2754 92.2402ZM35.2383 92.0938L35.7967 92.9234L35.8075 92.9159L35.2383 92.0938ZM39.5352 87.5039L38.688 86.9726L38.6855 86.9765L39.5352 87.5039ZM42.416 80.9609L43.3756 81.2424L43.3766 81.239L42.416 80.9609ZM44.0273 73.3438L43.0383 73.1954L43.0367 73.2075L44.0273 73.3438ZM44.0273 47.123L43.0459 47.3153L43.0484 47.327L44.0273 47.123ZM38.3145 34.3301L37.6073 35.0372L37.6168 35.0465L38.3145 34.3301ZM34.75 31.6445L34.2729 32.5234L34.2877 32.5314L34.3028 32.539L34.75 31.6445ZM31.5273 30.5215L31.3629 31.5079L31.3811 31.5109L31.3994 31.5133L31.5273 30.5215ZM7.8457 46.4395L8.80099 46.7351L8.80197 46.732L7.8457 46.4395ZM11.0684 38.7246L10.1936 38.24L10.1914 38.2441L11.0684 38.7246ZM15.8047 32.4746L16.4988 33.1945L16.4991 33.1942L15.8047 32.4746ZM22.1523 28.2754L22.5432 29.1959L22.5493 29.1932L22.1523 28.2754ZM37.0938 27.9336L36.7249 28.8631L36.7299 28.8651L37.0938 27.9336ZM42.6602 31.3027L41.9995 32.0535L42.0069 32.0599L42.6602 31.3027ZM46.957 36.3809L46.1058 36.9058L46.1122 36.9159L46.957 36.3809ZM49.9844 42.6797L49.0398 43.0082L49.0442 43.0203L49.9844 42.6797ZM51.791 49.7598L50.8033 49.9157L50.8044 49.9231L50.8057 49.9306L51.791 49.7598ZM51.8887 65.3359L52.8814 65.4559L52.8816 65.4547L51.8887 65.3359ZM47.1523 82.9629L48.0653 83.371L48.067 83.3671L47.1523 82.9629ZM36.5078 95.5117L36.9893 96.3882L36.9935 96.3859L36.5078 95.5117ZM15.1699 92.4355L14.4916 93.1704L14.4986 93.1768L15.1699 92.4355ZM10.7754 86.918L9.90875 87.4169L9.91209 87.4227L10.7754 86.918ZM7.69922 79.9844L6.74452 80.2819L6.74685 80.2894L6.74929 80.2969L7.69922 79.9844ZM5.94141 72.0742L4.94961 72.2026L4.95123 72.214L5.94141 72.0742ZM29.2324 29.2773C26.6813 29.2773 24.4068 29.8128 22.4426 30.9199L23.4246 32.6622C25.0411 31.751 26.9658 31.2773 29.2324 31.2773V29.2773ZM22.448 30.9169C20.5626 31.9643 18.9586 33.3783 17.6395 35.1486L19.2433 36.3436C20.3982 34.7936 21.7889 33.5709 23.4192 32.6652L22.448 30.9169ZM17.6452 35.141C16.3426 36.855 15.288 38.8158 14.476 41.015L16.3522 41.7077C17.1027 39.6751 18.0663 37.8924 19.2376 36.3512L17.6452 35.141ZM14.4713 41.0277C13.7068 43.1885 13.0922 45.4146 12.6274 47.7055L14.5875 48.1031C15.0341 45.9018 15.624 43.7659 16.3568 41.6949L14.4713 41.0277ZM12.6252 47.7165C12.1951 49.9664 11.897 52.2015 11.7313 54.4217L13.7257 54.5705C13.8856 52.4287 14.1734 50.2693 14.5896 48.0921L12.6252 47.7165ZM11.7303 54.4365C11.5992 56.6328 11.5332 58.6225 11.5332 60.4043H13.5332C13.5332 58.6704 13.5974 56.7214 13.7267 54.5557L11.7303 54.4365ZM11.5332 60.4043C11.5332 62.5504 11.6322 64.8879 11.8292 67.4156L13.8231 67.2602C13.6295 64.7749 13.5332 62.49 13.5332 60.4043H11.5332ZM11.8304 67.4296C12.0614 69.9383 12.4245 72.4462 12.9193 74.9534L14.8815 74.5661C14.3997 72.1254 14.0466 69.6854 13.822 67.2462L11.8304 67.4296ZM12.9193 74.9534C13.4166 77.473 14.0801 79.9119 14.9103 82.2696L16.7968 81.6054C15.9993 79.3407 15.3607 76.9944 14.8815 74.5661L12.9193 74.9534ZM14.9161 82.2857C15.787 84.6305 16.8481 86.7235 18.1048 88.5574L19.7546 87.427C18.6024 85.7453 17.6127 83.8018 16.7909 81.5893L14.9161 82.2857ZM18.1119 88.5677C19.4162 90.4211 20.9554 91.9301 22.7321 93.0798L23.8186 91.4007C22.2751 90.4019 20.9172 89.0789 19.7475 87.4167L18.1119 88.5677ZM22.7513 93.0919C24.6191 94.2413 26.7578 94.8027 29.1348 94.8027V92.8027C27.0846 92.8027 25.3171 92.3225 23.7995 91.3886L22.7513 93.0919ZM29.1348 94.8027C31.6764 94.8027 33.9131 94.1911 35.7967 92.9233L34.6799 91.2642C33.178 92.275 31.3457 92.8027 29.1348 92.8027V94.8027ZM35.8075 92.9159C37.6216 91.66 39.1464 90.0264 40.3848 88.0313L38.6855 86.9765C37.5801 88.7575 36.2404 90.1837 34.6691 91.2716L35.8075 92.9159ZM40.3823 88.0352C41.641 86.0281 42.6367 83.7613 43.3756 81.2424L41.4564 80.6795C40.763 83.0434 39.8381 85.1386 38.688 86.9726L40.3823 88.0352ZM43.3766 81.239C44.1065 78.7176 44.6535 76.1311 45.018 73.48L43.0367 73.2075C42.685 75.7647 42.1579 78.2564 41.4555 80.6829L43.3766 81.239ZM45.0163 73.4921C45.4117 70.8562 45.6754 68.2357 45.8073 65.6306L43.8099 65.5295C43.6814 68.0677 43.4243 70.6229 43.0384 73.1954L45.0163 73.4921ZM45.8073 65.6306C45.9382 63.0454 46.0039 60.6682 46.0039 58.5H44.0039C44.0039 60.6287 43.9394 62.9716 43.8099 65.5295L45.8073 65.6306ZM46.0039 58.5C46.0039 53.9966 45.6756 50.1317 45.0063 46.9191L43.0484 47.327C43.6811 50.3644 44.0039 54.0841 44.0039 58.5H46.0039ZM45.0087 46.9308C44.3802 43.7222 43.5622 41.0174 42.5402 38.8373L40.7293 39.6862C41.6605 41.6727 42.4375 44.2087 43.046 47.3153L45.0087 46.9308ZM42.5402 38.8373C41.5285 36.679 40.3588 34.9249 39.0121 33.6136L37.6168 35.0465C38.7441 36.1441 39.7879 37.6777 40.7293 39.6862L42.5402 38.8373ZM39.0216 33.623C37.7627 32.3641 36.4891 31.3961 35.1972 30.7501L34.3028 32.539C35.3546 33.0649 36.4574 33.8872 37.6073 35.0372L39.0216 33.623ZM35.2271 30.7657C34.0078 30.1038 32.8152 29.6794 31.6553 29.5297L31.3994 31.5133C32.2577 31.624 33.2136 31.9483 34.2729 32.5234L35.2271 30.7657ZM31.6917 29.5351C30.6961 29.3692 29.8678 29.2773 29.2324 29.2773V31.2773C29.7038 31.2773 30.4055 31.3483 31.3629 31.5079L31.6917 29.5351ZM6.4043 63.6758C6.4043 60.8237 6.59656 57.9545 6.98146 55.0677L4.99901 54.8034C4.60266 57.776 4.4043 60.7336 4.4043 63.6758H6.4043ZM6.98146 55.0677C7.36494 52.1916 7.97169 49.4144 8.80099 46.7351L6.89042 46.1438C6.027 48.9333 5.39678 51.8201 4.99901 54.8034L6.98146 55.0677ZM8.80197 46.732C9.62971 44.0259 10.6782 41.5177 11.9453 39.2051L10.1914 38.2441C8.8544 40.6841 7.7544 43.3192 6.88944 46.1469L8.80197 46.732ZM11.9431 39.2092C13.2337 36.8798 14.7534 34.8775 16.4988 33.1945L15.1106 31.7548C13.2101 33.5873 11.5723 35.7517 10.1936 38.24L11.9431 39.2092ZM16.4991 33.1942C18.2664 31.4889 20.2794 30.1572 22.5432 29.1958L21.7615 27.3549C19.2727 28.4118 17.0539 29.8796 15.1103 31.755L16.4991 33.1942ZM22.5493 29.1932C24.815 28.2135 27.395 27.7129 30.3066 27.7129V25.7129C27.1636 25.7129 24.3074 26.254 21.7554 27.3575L22.5493 29.1932ZM30.3066 27.7129C32.6696 27.7129 34.8049 28.1012 36.7249 28.8631L37.4626 27.0041C35.281 26.1384 32.8916 25.7129 30.3066 25.7129V27.7129ZM36.7299 28.8651C38.708 29.6377 40.4623 30.7007 41.9995 32.0534L43.3208 30.552C41.6028 29.0402 39.6462 27.857 37.4576 27.0021L36.7299 28.8651ZM42.0069 32.0599C43.5861 33.4223 44.9526 35.0356 46.1059 36.9057L47.8082 35.856C46.5526 33.8198 45.0546 32.0478 43.3134 30.5456L42.0069 32.0599ZM46.1122 36.9159C47.307 38.8024 48.2831 40.8325 49.0399 43.0082L50.9289 42.3512C50.1231 40.0347 49.081 37.8656 47.8019 35.8458L46.1122 36.9159ZM49.0442 43.0203C49.8353 45.2037 50.4221 47.5017 50.8033 49.9157L52.7788 49.6038C52.3787 47.0699 51.7611 44.6479 50.9246 42.339L49.0442 43.0203ZM50.8057 49.9306C51.2193 52.3164 51.4258 54.7007 51.4258 57.084H53.4258C53.4258 54.5845 53.2091 52.0859 52.7763 49.589L50.8057 49.9306ZM51.4258 57.084C51.4258 59.5438 51.25 62.2542 50.8957 65.2172L52.8816 65.4547C53.2435 62.4281 53.4258 59.6372 53.4258 57.084H51.4258ZM50.8959 65.2159C50.5434 68.1319 49.9824 71.0662 49.2121 74.0191L51.1473 74.5239C51.9395 71.4872 52.5178 68.4645 52.8814 65.4559L50.8959 65.2159ZM49.2121 74.0191C48.4442 76.9625 47.4527 79.8089 46.2377 82.5587L48.067 83.3671C49.3259 80.5179 50.3527 77.57 51.1473 74.5239L49.2121 74.0191ZM46.2394 82.5548C45.0353 85.2482 43.583 87.6288 41.8862 89.7027L43.4341 90.9692C45.2529 88.7462 46.7954 86.2115 48.0653 83.371L46.2394 82.5548ZM41.8862 89.7027C40.2055 91.7569 38.2515 93.399 36.0222 94.6376L36.9935 96.3859C39.4516 95.0203 41.5992 93.2119 43.4341 90.9692L41.8862 89.7027ZM36.0264 94.6352C33.8785 95.815 31.4269 96.416 28.6465 96.416V98.416C31.7254 98.416 34.5147 97.7475 36.9893 96.3882L36.0264 94.6352ZM28.6465 96.416C25.9861 96.416 23.6055 95.9937 21.4914 95.1664L20.7626 97.0289C23.1405 97.9594 25.773 98.416 28.6465 98.416V96.416ZM21.4914 95.1664C19.3541 94.3301 17.4733 93.1725 15.8412 91.6943L14.4986 93.1768C16.3171 94.8236 18.4076 96.1074 20.7626 97.0289L21.4914 95.1664ZM15.8482 91.7007C14.2327 90.2095 12.8289 88.4492 11.6387 86.4133L9.91209 87.4227C11.1958 89.6185 12.7217 91.5366 14.4916 93.1704L15.8482 91.7007ZM11.642 86.419C10.4408 84.3326 9.44269 82.0843 8.64914 79.6719L6.74929 80.2969C7.58335 82.8324 8.63606 85.2064 9.90877 87.4169L11.642 86.419ZM8.65392 79.6868C7.88973 77.235 7.31514 74.6513 6.93159 71.9344L4.95123 72.214C5.34892 75.031 5.94621 77.7207 6.74452 80.2819L8.65392 79.6868ZM6.93314 71.9459C6.58065 69.2221 6.4043 66.4655 6.4043 63.6758H4.4043C4.4043 66.5501 4.58601 69.3924 4.94968 72.2026L6.93314 71.9459ZM86.459 73.7832L87.4583 73.8195L87.496 72.7832H86.459V73.7832ZM57.6504 73.7832L56.6509 73.7504L56.6171 74.7832H57.6504V73.7832ZM57.748 70.8047L56.9607 70.1882L56.7593 70.4454L56.7486 70.7719L57.748 70.8047ZM92.2695 26.7129L92.7577 25.8401L92.0102 25.422L91.4822 26.0964L92.2695 26.7129ZM95.1504 28.3242L96.1498 28.3591L96.1711 27.7493L95.6385 27.4515L95.1504 28.3242ZM93.7344 68.8516L92.735 68.8166L92.6965 69.9184L93.7968 69.8496L93.7344 68.8516ZM98.0312 68.6074L98.0812 69.6062L98.0936 69.6056L98.106 69.6046L98.0312 68.6074ZM101.4 68.3633L101.469 69.3609L101.48 69.3602L101.491 69.3592L101.4 68.3633ZM104.379 68.1191L105.306 68.4947L105.908 67.0073L104.308 67.1217L104.379 68.1191ZM102.084 73.7832V74.7832H102.758L103.011 74.1587L102.084 73.7832ZM93.5879 73.7832V72.7832H92.6271L92.5887 73.7432L93.5879 73.7832ZM93.2949 81.8398L92.2954 81.8091L92.2952 81.8168L92.295 81.8245L93.2949 81.8398ZM93.5391 89.2617L92.5628 89.4787L92.5647 89.4866L93.5391 89.2617ZM94.418 91.3125L93.618 91.9125L93.6273 91.925L93.6371 91.9372L94.418 91.3125ZM95.8828 92.3867L95.5204 93.3187L95.5287 93.322L95.5371 93.3251L95.8828 92.3867ZM98.0801 92.9238L97.928 93.9123L97.9419 93.9142L98.0801 92.9238ZM100.18 93.2168H101.18V92.3466L100.318 92.2264L100.18 93.2168ZM100.18 96L100.038 96.9899L101.18 97.153V96H100.18ZM97.7383 95.6582L97.8749 94.6676L97.8466 94.6637L97.818 94.6614L97.7383 95.6582ZM94.6621 95.4629L94.5813 96.4596L94.5954 96.4608L94.6096 96.4615L94.6621 95.4629ZM78.4512 96H77.4512V97.1123L78.5572 96.9944L78.4512 96ZM78.4512 93.2168L78.3745 92.2197L77.4512 92.2908V93.2168H78.4512ZM82.5039 92.8262L82.3871 91.833L82.5039 92.8262ZM85.7754 92.582L85.8309 93.5805L86.7416 93.5299L86.7747 92.6184L85.7754 92.582ZM62.875 70.0234L62.0873 69.4073L60.8232 71.0234H62.875V70.0234ZM68.6855 69.9746L68.6694 68.9747L68.6692 68.9747L68.6855 69.9746ZM74.7402 69.8281L74.7725 70.8276L74.7801 70.8274L74.7878 70.827L74.7402 69.8281ZM80.7949 69.584L80.8277 70.5834L80.8355 70.5832L80.8433 70.5828L80.7949 69.584ZM86.6055 69.291L86.658 70.2896L87.5704 70.2416L87.6048 69.3287L86.6055 69.291ZM87.7773 38.1875L88.7766 38.2251L88.8929 35.1382L86.9897 37.5714L87.7773 38.1875ZM86.459 72.7832H57.6504V74.7832H86.459V72.7832ZM58.6499 73.816L58.7475 70.8375L56.7486 70.7719L56.6509 73.7504L58.6499 73.816ZM58.5354 71.4212L93.0569 27.3294L91.4822 26.0964L56.9607 70.1882L58.5354 71.4212ZM91.7814 27.5856L94.6622 29.197L95.6385 27.4515L92.7577 25.8401L91.7814 27.5856ZM94.151 28.2893L92.735 68.8166L94.7338 68.8865L96.1498 28.3591L94.151 28.2893ZM93.7968 69.8496C95.3559 69.7522 96.784 69.671 98.0812 69.6062L97.9813 67.6087C96.6744 67.674 95.2379 67.7556 93.672 67.8535L93.7968 69.8496ZM98.106 69.6046C99.4068 69.5071 100.528 69.4258 101.469 69.3609L101.332 67.3657C100.385 67.4309 99.2599 67.5125 97.9565 67.6102L98.106 69.6046ZM101.491 69.3592C102.56 69.262 103.546 69.1812 104.45 69.1166L104.308 67.1217C103.389 67.1873 102.389 67.2692 101.31 67.3674L101.491 69.3592ZM103.452 67.7436L101.157 73.4077L103.011 74.1587L105.306 68.4947L103.452 67.7436ZM102.084 72.7832H93.5879V74.7832H102.084V72.7832ZM92.5887 73.7432C92.4584 77.0001 92.3606 79.689 92.2954 81.8091L94.2944 81.8706C94.3594 79.759 94.4569 77.0768 94.5871 73.8232L92.5887 73.7432ZM92.295 81.8245C92.2625 83.9374 92.2461 85.2646 92.2461 85.7949H94.2461C94.2461 85.2835 94.2622 83.9741 94.2948 81.8552L92.295 81.8245ZM92.2461 85.7949C92.2461 87.2628 92.3453 88.4995 92.5629 89.4786L94.5152 89.0448C94.3422 88.2661 94.2461 87.1916 94.2461 85.7949H92.2461ZM92.5647 89.4866C92.7814 90.4257 93.1207 91.2495 93.618 91.9125L95.218 90.7125C94.934 90.3338 94.6874 89.7904 94.5135 89.0369L92.5647 89.4866ZM93.6371 91.9372C94.1383 92.5637 94.7713 93.0274 95.5204 93.3187L96.2453 91.4547C95.8225 91.2903 95.4789 91.0378 95.1988 90.6878L93.6371 91.9372ZM95.5371 93.3251C96.2337 93.5817 97.0341 93.7747 97.928 93.9122L98.2321 91.9355C97.4334 91.8126 96.7689 91.6475 96.2285 91.4484L95.5371 93.3251ZM97.9419 93.9142L100.041 94.2072L100.318 92.2264L98.2183 91.9334L97.9419 93.9142ZM99.1797 93.2168V96H101.18V93.2168H99.1797ZM100.321 95.0101C99.6355 94.9121 98.82 94.7979 97.8749 94.6676L97.6016 96.6488C98.5446 96.7789 99.3567 96.8926 100.038 96.9899L100.321 95.0101ZM97.818 94.6614C96.9918 94.5953 95.9566 94.5296 94.7147 94.4643L94.6096 96.4615C95.8416 96.5264 96.8571 96.5909 97.6585 96.655L97.818 94.6614ZM94.7429 94.4662C93.5047 94.3658 92.077 94.3164 90.4629 94.3164V96.3164C92.0389 96.3164 93.4107 96.3647 94.5813 96.4596L94.7429 94.4662ZM90.4629 94.3164C88.8481 94.3164 87.0409 94.3658 85.0427 94.4641L85.1409 96.4617C87.114 96.3646 88.8876 96.3164 90.4629 96.3164V94.3164ZM85.0427 94.4641C83.0342 94.5629 80.8013 94.7437 78.3451 95.0056L78.5572 96.9944C80.9839 96.7355 83.1781 96.5582 85.1409 96.4617L85.0427 94.4641ZM79.4512 96V93.2168H77.4512V96H79.4512ZM78.5279 94.2139C79.3797 94.1483 80.1363 94.0826 80.7968 94.0165L80.5978 92.0264C79.9562 92.0906 79.2153 92.1551 78.3745 92.2197L78.5279 94.2139ZM80.7968 94.0165C81.4526 93.9509 82.0607 93.8852 82.6207 93.8193L82.3871 91.833C81.8403 91.8973 81.244 91.9618 80.5978 92.0264L80.7968 94.0165ZM82.6207 93.8193C83.1572 93.7562 83.6761 93.7091 84.1776 93.6777L84.0529 91.6816C83.5127 91.7154 82.9574 91.7659 82.3871 91.833L82.6207 93.8193ZM84.1776 93.6777C84.6959 93.6453 85.2469 93.6129 85.8309 93.5805L85.7199 91.5836C85.132 91.6162 84.5763 91.6489 84.0529 91.6816L84.1776 93.6777ZM86.7747 92.6184L87.4583 73.8195L85.4596 73.7469L84.7761 92.5457L86.7747 92.6184ZM62.875 71.0234C64.7688 71.0234 66.7111 71.0071 68.7019 70.9745L68.6692 68.9747C66.6887 69.0072 64.7573 69.0234 62.875 69.0234V71.0234ZM68.7017 70.9745C70.7253 70.9418 72.7489 70.8929 74.7725 70.8276L74.708 68.8286C72.6951 68.8936 70.6823 68.9423 68.6694 68.9747L68.7017 70.9745ZM74.7878 70.827C76.8338 70.7296 78.8471 70.6484 80.8277 70.5834L80.7622 68.5845C78.7714 68.6498 76.7482 68.7314 74.6927 68.8293L74.7878 70.827ZM80.8433 70.5828C82.8628 70.4851 84.801 70.3874 86.658 70.2896L86.5529 68.2924C84.699 68.39 82.7635 68.4876 80.7466 68.5852L80.8433 70.5828ZM87.6048 69.3287L88.7766 38.2251L86.7781 38.1499L85.6062 69.2534L87.6048 69.3287ZM86.9897 37.5714L62.0873 69.4073L63.6627 70.6396L88.565 38.8036L86.9897 37.5714Z" fill="#050B19"/>
<rect x="0.5" y="1.308" width="62" height="2.232" rx="1.116" stroke="#050B19"/>
</svg>
