<svg width="171" height="449" viewBox="0 0 171 449" fill="none" xmlns="http://www.w3.org/2000/svg">
<path d="M64.37 395.33L64.0431 394.385L63.37 394.618V395.33H64.37ZM64.37 425.91H63.37V426.622L64.0431 426.855L64.37 425.91ZM79 430.97H80V430.258L79.3269 430.025L79 430.97ZM79 447.14L78.662 448.081L80 448.562V447.14H79ZM2.10999 419.53H1.10999V420.233L1.77204 420.471L2.10999 419.53ZM2.10999 401.6L1.77204 400.659L1.10999 400.897V401.6H2.10999ZM79 373.99H80V372.568L78.662 373.049L79 373.99ZM79 390.27L79.3269 391.215L80 390.982V390.27H79ZM52.05 399.51H53.05V398.106L51.7231 398.565L52.05 399.51ZM19.93 410.62L19.6031 409.675L16.8709 410.62L19.6031 411.565L19.93 410.62ZM52.05 421.73L51.7231 422.675L53.05 423.134V421.73H52.05ZM63.37 395.33V425.91H65.37V395.33H63.37ZM64.0431 426.855L78.6731 431.915L79.3269 430.025L64.6969 424.965L64.0431 426.855ZM78 430.97V447.14H80V430.97H78ZM79.338 446.199L2.44795 418.589L1.77204 420.471L78.662 448.081L79.338 446.199ZM3.10999 419.53L3.10999 401.6H1.10999L1.10999 419.53H3.10999ZM2.44795 402.541L79.338 374.931L78.662 373.049L1.77204 400.659L2.44795 402.541ZM78 373.99V390.27H80V373.99H78ZM78.6731 389.325L64.0431 394.385L64.6969 396.275L79.3269 391.215L78.6731 389.325ZM51.7231 398.565L19.6031 409.675L20.2569 411.565L52.3769 400.455L51.7231 398.565ZM19.6031 411.565L51.7231 422.675L52.3769 420.785L20.2569 409.675L19.6031 411.565ZM53.05 421.73V399.51H51.05V421.73H53.05ZM66.79 348.27V349.27H67.79V348.27H66.79ZM66.79 322.97V321.97H65.79V322.97H66.79ZM79 322.97H80V321.97H79V322.97ZM79 363.67V364.67H80V363.67H79ZM2.22 363.67H1.22V364.67H2.22V363.67ZM2.22 348.27V347.27H1.22V348.27H2.22ZM67.79 348.27L67.79 322.97H65.79L65.79 348.27H67.79ZM66.79 323.97H79V321.97H66.79V323.97ZM78 322.97L78 363.67H80L80 322.97H78ZM79 362.67H2.22V364.67H79V362.67ZM3.22 363.67L3.22 348.27H1.22L1.22 363.67H3.22ZM2.22 349.27H66.79V347.27H2.22V349.27ZM14.65 297.781H13.65V298.781H14.65V297.781ZM33.9 297.781V298.781H34.9V297.781H33.9ZM33.9 271.931V270.931H32.9V271.931H33.9ZM46.11 271.931H47.11V270.931H46.11V271.931ZM46.11 297.781H45.11V298.781H46.11V297.781ZM66.46 297.781V298.781H67.46V297.781H66.46ZM66.46 268.631V267.631H65.46V268.631H66.46ZM79 268.631H80V267.631H79V268.631ZM79 313.181V314.181H80V313.181H79ZM2.10999 313.181H1.10999V314.181H2.10999V313.181ZM2.10999 268.631V267.631H1.10999V268.631H2.10999ZM14.65 268.631H15.65V267.631H14.65V268.631ZM14.65 298.781H33.9V296.781H14.65V298.781ZM34.9 297.781L34.9 271.931H32.9L32.9 297.781H34.9ZM33.9 272.931H46.11V270.931H33.9V272.931ZM45.11 271.931L45.11 297.781H47.11L47.11 271.931H45.11ZM46.11 298.781H66.46V296.781H46.11V298.781ZM67.46 297.781V268.631H65.46V297.781H67.46ZM66.46 269.631H79V267.631H66.46V269.631ZM78 268.631V313.181H80V268.631H78ZM79 312.181H2.10999L2.10999 314.181H79V312.181ZM3.10999 313.181L3.10999 268.631H1.10999L1.10999 313.181H3.10999ZM2.10999 269.631H14.65V267.631H2.10999L2.10999 269.631ZM13.65 268.631V297.781H15.65V268.631H13.65ZM2.22 209.867V208.867H1.22V209.867H2.22ZM73.61 216.357L74.3353 215.668L74.3292 215.662L73.61 216.357ZM73.39 251.557L74.1147 252.246L74.1203 252.24L73.39 251.557ZM55.57 258.267H54.57V259.267H55.57V258.267ZM55.57 242.867L55.5478 241.867L54.57 241.889V242.867H55.57ZM63.27 240.557L63.8947 241.337L63.904 241.33L63.9132 241.322L63.27 240.557ZM63.38 227.577L64.0202 226.808L64.0202 226.808L63.38 227.577ZM2.22 225.377H1.22V226.377H2.22V225.377ZM2.22 210.867H56.12V208.867H2.22L2.22 210.867ZM56.12 210.867C63.399 210.867 68.943 212.965 72.8908 217.051L74.3292 215.662C69.917 211.095 63.801 208.867 56.12 208.867V210.867ZM72.8847 217.045C76.7783 221.147 78.77 226.674 78.77 233.737H80.77C80.77 226.279 78.655 220.219 74.3353 215.668L72.8847 217.045ZM78.77 233.737C78.77 240.864 76.7095 246.544 72.6597 250.873L74.1203 252.24C78.5772 247.475 80.77 241.276 80.77 233.737H78.77ZM72.6653 250.868C68.6435 255.097 62.9917 257.267 55.57 257.267V259.267C63.4017 259.267 69.6298 256.962 74.1147 252.246L72.6653 250.868ZM56.57 258.267V242.867H54.57V258.267H56.57ZM55.5922 243.866C59.0247 243.79 61.8326 242.987 63.8947 241.337L62.6453 239.776C61.0407 241.059 58.7153 241.796 55.5478 241.867L55.5922 243.866ZM63.9132 241.322C66.0171 239.555 67.02 237.049 67.02 233.957H65.02C65.02 236.585 64.1895 238.478 62.6268 239.791L63.9132 241.322ZM67.02 233.957C67.02 230.944 66.0573 228.506 64.0202 226.808L62.7398 228.345C64.2227 229.581 65.02 231.396 65.02 233.957H67.02ZM64.0202 226.808C62.0269 225.147 59.3531 224.377 56.12 224.377V226.377C59.0469 226.377 61.2131 227.073 62.7398 228.345L64.0202 226.808ZM56.12 224.377H2.22L2.22 226.377H56.12V224.377ZM3.22 225.377V209.867H1.22L1.22 225.377H3.22ZM74.71 176.062L73.8379 175.573L74.71 176.062ZM60.74 190.362L61.2452 191.225L61.2498 191.222L60.74 190.362ZM20.26 190.362L20.7698 189.502L20.7652 189.499L20.26 190.362ZM6.17999 176.062L5.30785 176.551L5.30785 176.551L6.17999 176.062ZM6.17999 136.462L7.04957 136.956L7.05214 136.951L6.17999 136.462ZM20.26 122.272L20.7573 123.14L20.7636 123.136L20.7698 123.132L20.26 122.272ZM60.74 122.272L60.2348 123.135L60.2381 123.137L60.74 122.272ZM74.71 136.462L73.8379 136.951L73.8379 136.951L74.71 136.462ZM62.94 144.052L63.8038 143.548L63.7999 143.542L63.7959 143.535L62.94 144.052ZM53.92 135.802L54.3739 134.911L54.3739 134.911L53.92 135.802ZM26.97 135.802L27.4239 136.693L27.4308 136.69L26.97 135.802ZM18.06 144.052L18.9238 144.556L18.9238 144.556L18.06 144.052ZM18.06 168.582L17.1917 169.078L17.1962 169.086L18.06 168.582ZM26.97 176.832L27.4308 175.945L27.4239 175.941L26.97 176.832ZM53.92 176.832L53.4661 175.941L53.4661 175.941L53.92 176.832ZM62.94 168.582L63.7959 169.099L63.8022 169.089L63.8082 169.078L62.94 168.582ZM78.77 156.262C78.77 163.285 77.1237 169.715 73.8379 175.573L75.5821 176.551C79.0429 170.382 80.77 163.613 80.77 156.262H78.77ZM73.8379 175.573C70.5507 181.433 66.0191 186.071 60.2302 189.502L61.2498 191.222C67.3409 187.613 72.1226 182.718 75.5821 176.551L73.8379 175.573ZM60.2348 189.499C54.3875 192.922 47.7812 194.642 40.39 194.642V196.642C48.1055 196.642 55.0658 194.842 61.2452 191.225L60.2348 189.499ZM40.39 194.642C33.0739 194.642 26.5427 192.923 20.7698 189.502L19.7502 191.222C25.8573 194.842 32.7461 196.642 40.39 196.642V194.642ZM20.7652 189.499C14.9035 186.068 10.3376 181.43 7.05214 175.573L5.30785 176.551C8.76909 182.721 13.5898 187.616 19.7548 191.225L20.7652 189.499ZM7.05214 175.573C3.76625 169.715 2.12 163.285 2.12 156.262H0.12C0.12 163.613 1.84708 170.382 5.30785 176.551L7.05214 175.573ZM2.12 156.262C2.12 149.164 3.76711 142.736 7.04955 136.956L5.31043 135.968C1.84622 142.068 0.12 148.84 0.12 156.262H2.12ZM7.05214 136.951C10.3365 131.097 14.8999 126.497 20.7573 123.14L19.7627 121.405C13.5934 124.941 8.77013 129.801 5.30785 135.973L7.05214 136.951ZM20.7698 123.132C26.5427 119.711 33.0739 117.992 40.39 117.992V115.992C32.7461 115.992 25.8573 117.793 19.7502 121.412L20.7698 123.132ZM40.39 117.992C47.7812 117.992 54.3875 119.712 60.2348 123.135L61.2452 121.409C55.0658 117.792 48.1055 115.992 40.39 115.992V117.992ZM60.2381 123.137C66.0227 126.494 70.5517 131.094 73.8379 136.951L75.5821 135.973C72.1216 129.804 67.3373 124.944 61.2419 121.407L60.2381 123.137ZM73.8379 136.951C77.1237 142.809 78.77 149.239 78.77 156.262H80.77C80.77 148.912 79.0429 142.142 75.5821 135.973L73.8379 136.951ZM67.02 156.262C67.02 151.489 65.9577 147.241 63.8038 143.548L62.0762 144.556C64.0289 147.904 65.02 151.795 65.02 156.262H67.02ZM63.7959 143.535C61.5668 139.846 58.4163 136.97 54.3739 134.911L53.4661 136.693C57.197 138.594 60.0598 141.219 62.0841 144.569L63.7959 143.535ZM54.3739 134.911C50.3238 132.848 45.6533 131.832 40.39 131.832V133.832C45.3934 133.832 49.7429 134.796 53.4661 136.693L54.3739 134.911ZM40.39 131.832C35.1273 131.832 30.4901 132.848 26.5092 134.915L27.4308 136.69C31.0766 134.797 35.386 133.832 40.39 133.832V131.832ZM26.5161 134.911C22.4711 136.972 19.3531 139.851 17.1962 143.548L18.9238 144.556C20.8736 141.214 23.6956 138.593 27.4239 136.693L26.5161 134.911ZM17.1962 143.548C15.0423 147.241 13.98 151.489 13.98 156.262H15.98C15.98 151.795 16.9711 147.904 18.9238 144.556L17.1962 143.548ZM13.98 156.262C13.98 161.036 15.0424 165.317 17.1918 169.078L18.9282 168.086C16.971 164.661 15.98 160.729 15.98 156.262H13.98ZM17.1962 169.086C19.3531 172.784 22.4711 175.663 26.5161 177.723L27.4239 175.941C23.6956 174.042 20.8736 171.421 18.9238 168.078L17.1962 169.086ZM26.5092 177.72C30.4901 179.787 35.1273 180.802 40.39 180.802V178.802C35.386 178.802 31.0766 177.838 27.4308 175.945L26.5092 177.72ZM40.39 180.802C45.6533 180.802 50.3238 179.786 54.3739 177.723L53.4661 175.941C49.7429 177.838 45.3934 178.802 40.39 178.802V180.802ZM54.3739 177.723C58.4163 175.664 61.5668 172.789 63.7959 169.099L62.0841 168.065C60.0598 171.416 57.197 174.04 53.4661 175.941L54.3739 177.723ZM63.8082 169.078C65.9576 165.317 67.02 161.036 67.02 156.262H65.02C65.02 160.729 64.029 164.661 62.0718 168.086L63.8082 169.078ZM155.37 395.33L155.043 394.385L154.37 394.618V395.33H155.37ZM155.37 425.91H154.37V426.622L155.043 426.855L155.37 425.91ZM170 430.97H171V430.258L170.327 430.025L170 430.97ZM170 447.14L169.662 448.081L171 448.562V447.14H170ZM93.11 419.53H92.11V420.233L92.772 420.471L93.11 419.53ZM93.11 401.6L92.772 400.659L92.11 400.897V401.6H93.11ZM170 373.99H171V372.568L169.662 373.049L170 373.99ZM170 390.27L170.327 391.215L171 390.982V390.27H170ZM143.05 399.51H144.05V398.106L142.723 398.565L143.05 399.51ZM110.93 410.62L110.603 409.675L107.871 410.62L110.603 411.565L110.93 410.62ZM143.05 421.73L142.723 422.675L144.05 423.134V421.73H143.05ZM154.37 395.33V425.91H156.37V395.33H154.37ZM155.043 426.855L169.673 431.915L170.327 430.025L155.697 424.965L155.043 426.855ZM169 430.97V447.14H171V430.97H169ZM170.338 446.199L93.4479 418.589L92.772 420.471L169.662 448.081L170.338 446.199ZM94.11 419.53V401.6H92.11V419.53H94.11ZM93.4479 402.541L170.338 374.931L169.662 373.049L92.772 400.659L93.4479 402.541ZM169 373.99V390.27H171V373.99H169ZM169.673 389.325L155.043 394.385L155.697 396.275L170.327 391.215L169.673 389.325ZM142.723 398.565L110.603 409.675L111.257 411.565L143.377 400.455L142.723 398.565ZM110.603 411.565L142.723 422.675L143.377 420.785L111.257 409.675L110.603 411.565ZM144.05 421.73V399.51H142.05V421.73H144.05ZM93.22 294.7L93.5643 293.761L92.22 293.268V294.7H93.22ZM170 322.86H171V322.161L170.344 321.921L170 322.86ZM170 341.56L170.344 342.499L171 342.258V341.56H170ZM93.22 369.72H92.22V371.152L93.5643 370.659L93.22 369.72ZM93.22 353.22L92.8931 352.275L92.22 352.508V353.22H93.22ZM154.27 332.1L154.597 333.045L157.336 332.097L154.595 331.154L154.27 332.1ZM93.22 311.09H92.22V311.803L92.8946 312.035L93.22 311.09ZM92.8757 295.639L169.656 323.799L170.344 321.921L93.5643 293.761L92.8757 295.639ZM169 322.86V341.56H171V322.86H169ZM169.656 340.621L92.8757 368.781L93.5643 370.659L170.344 342.499L169.656 340.621ZM94.22 369.72V353.22H92.22V369.72H94.22ZM93.5469 354.165L154.597 333.045L153.943 331.155L92.8931 352.275L93.5469 354.165ZM154.595 331.154L93.5454 310.144L92.8946 312.035L153.945 333.045L154.595 331.154ZM94.22 311.09V294.7H92.22V311.09H94.22ZM105.65 270.067H104.65V271.067H105.65V270.067ZM124.9 270.067V271.067H125.9V270.067H124.9ZM124.9 244.217V243.217H123.9V244.217H124.9ZM137.11 244.217H138.11V243.217H137.11V244.217ZM137.11 270.067H136.11V271.067H137.11V270.067ZM157.46 270.067V271.067H158.46V270.067H157.46ZM157.46 240.917V239.917H156.46V240.917H157.46ZM170 240.917H171V239.917H170V240.917ZM170 285.467V286.467H171V285.467H170ZM93.11 285.467H92.11V286.467H93.11V285.467ZM93.11 240.917V239.917H92.11V240.917H93.11ZM105.65 240.917H106.65V239.917H105.65V240.917ZM105.65 271.067H124.9V269.067H105.65V271.067ZM125.9 270.067V244.217H123.9V270.067H125.9ZM124.9 245.217H137.11V243.217H124.9V245.217ZM136.11 244.217V270.067H138.11V244.217H136.11ZM137.11 271.067H157.46V269.067H137.11V271.067ZM158.46 270.067V240.917H156.46V270.067H158.46ZM157.46 241.917H170V239.917H157.46V241.917ZM169 240.917V285.467H171V240.917H169ZM170 284.467H93.11V286.467H170V284.467ZM94.11 285.467V240.917H92.11V285.467H94.11ZM93.11 241.917H105.65V239.917H93.11V241.917ZM104.65 240.917V270.067H106.65V240.917H104.65ZM170 161.252H171V160.252H170V161.252ZM170 176.652L170.552 177.486L171 177.189V176.652H170ZM117.31 211.522L116.758 210.688L113.987 212.522H117.31V211.522ZM170 211.522H171V210.522H170V211.522ZM170 226.922V227.922H171V226.922H170ZM93.11 226.922H92.11V227.922H93.11V226.922ZM93.11 211.522L92.5589 210.687L92.11 210.984V211.522H93.11ZM145.91 176.652L146.461 177.486L149.239 175.652H145.91V176.652ZM93.11 176.652H92.11V177.652H93.11V176.652ZM93.11 161.252V160.252H92.11V161.252H93.11ZM169 161.252V176.652H171V161.252H169ZM169.448 175.818L116.758 210.688L117.862 212.356L170.552 177.486L169.448 175.818ZM117.31 212.522H170V210.522H117.31V212.522ZM169 211.522L169 226.922H171L171 211.522H169ZM170 225.922H93.11V227.922H170V225.922ZM94.11 226.922V211.522H92.11V226.922H94.11ZM93.6611 212.356L146.461 177.486L145.359 175.817L92.5589 210.687L93.6611 212.356ZM145.91 175.652H93.11V177.652H145.91V175.652ZM94.11 176.652V161.252H92.11V176.652H94.11ZM93.11 162.252H170V160.252H93.11V162.252ZM155.37 98.953L155.043 98.008L154.37 98.2408V98.953H155.37ZM155.37 129.533H154.37V130.245L155.043 130.478L155.37 129.533ZM170 134.593H171V133.881L170.327 133.648L170 134.593ZM170 150.763L169.662 151.704L171 152.185V150.763H170ZM93.11 123.153H92.11V123.856L92.772 124.094L93.11 123.153ZM93.11 105.223L92.772 104.282L92.11 104.52V105.223H93.11ZM170 77.613H171V76.1914L169.662 76.6719L170 77.613ZM170 93.893L170.327 94.8381L171 94.6053V93.893H170ZM143.05 103.133H144.05V101.729L142.723 102.188L143.05 103.133ZM110.93 114.243L110.603 113.298L107.871 114.243L110.603 115.188L110.93 114.243ZM143.05 125.353L142.723 126.298L144.05 126.757V125.353H143.05ZM154.37 98.953V129.533H156.37V98.953H154.37ZM155.043 130.478L169.673 135.538L170.327 133.648L155.697 128.588L155.043 130.478ZM169 134.593V150.763H171V134.593H169ZM170.338 149.822L93.4479 122.212L92.772 124.094L169.662 151.704L170.338 149.822ZM94.11 123.153V105.223H92.11V123.153H94.11ZM93.4479 106.164L170.338 78.5542L169.662 76.6719L92.772 104.282L93.4479 106.164ZM169 77.613V93.893H171V77.613H169ZM169.673 92.948L155.043 98.008L155.697 99.8981L170.327 94.8381L169.673 92.948ZM142.723 102.188L110.603 113.298L111.257 115.188L143.377 104.078L142.723 102.188ZM110.603 115.188L142.723 126.298L143.377 124.408L111.257 113.298L110.603 115.188ZM144.05 125.353V103.133H142.05V125.353H144.05ZM157.79 51.8928V52.8928H158.79V51.8928H157.79ZM157.79 26.5928V25.5928H156.79V26.5928H157.79ZM170 26.5928H171V25.5928H170V26.5928ZM170 67.2928V68.2928H171V67.2928H170ZM93.22 67.2928H92.22V68.2928H93.22V67.2928ZM93.22 51.8928V50.8928H92.22V51.8928H93.22ZM158.79 51.8928V26.5928H156.79V51.8928H158.79ZM157.79 27.5928H170V25.5928H157.79V27.5928ZM169 26.5928V67.2928H171V26.5928H169ZM170 66.2928H93.22V68.2928H170V66.2928ZM94.22 67.2928V51.8928H92.22V67.2928H94.22ZM93.22 52.8928H157.79V50.8928H93.22V52.8928ZM93.22 1.40453V0.404531H92.22V1.40453H93.22ZM170 1.40453H171V0.404531H170V1.40453ZM170 16.8045V17.8045H171V16.8045H170ZM93.22 16.8045H92.22V17.8045H93.22V16.8045ZM93.22 2.40453H170V0.404531H93.22V2.40453ZM169 1.40453V16.8045H171V1.40453H169ZM170 15.8045H93.22V17.8045H170V15.8045ZM94.22 16.8045V1.40453H92.22V16.8045H94.22Z" fill="white"/>
</svg>
