<svg width="29" height="29" viewBox="0 0 29 29" fill="none" xmlns="http://www.w3.org/2000/svg">
<path d="M12.0833 22.9583C11.801 22.9589 11.5274 22.8606 11.31 22.6804C11.1876 22.579 11.0865 22.4544 11.0124 22.3138C10.9382 22.1732 10.8926 22.0194 10.878 21.8611C10.8634 21.7029 10.8801 21.5433 10.9273 21.3915C10.9745 21.2397 11.0512 21.0988 11.1529 20.9767L16.5662 14.5L11.3462 8.01126C11.2459 7.88766 11.1709 7.74545 11.1257 7.59279C11.0805 7.44013 11.0658 7.28003 11.0827 7.12171C11.0995 6.96338 11.1475 6.80994 11.2238 6.67022C11.3002 6.53049 11.4034 6.40722 11.5275 6.30751C11.6525 6.19751 11.7989 6.11453 11.9575 6.0638C12.1161 6.01306 12.2835 5.99566 12.4492 6.01268C12.6148 6.02969 12.7752 6.08077 12.9202 6.1627C13.0651 6.24462 13.1916 6.35563 13.2917 6.48876L19.1279 13.7388C19.3056 13.955 19.4028 14.2262 19.4028 14.5061C19.4028 14.7859 19.3056 15.0571 19.1279 15.2733L13.0862 22.5233C12.965 22.6696 12.811 22.7852 12.6368 22.8607C12.4625 22.9363 12.2729 22.9698 12.0833 22.9583Z" fill="black"/>
</svg>
