<svg width="152" height="152" viewBox="0 0 152 152" fill="none" xmlns="http://www.w3.org/2000/svg">
<circle cx="3.69701" cy="3.69701" r="3.69701" fill="#BFC3CE"/>
<circle cx="148.303" cy="3.69701" r="3.69701" fill="#BFC3CE"/>
<circle cx="112.152" cy="3.69701" r="3.69701" fill="#BFC3CE"/>
<circle cx="76.0002" cy="3.69701" r="3.69701" fill="#BFC3CE"/>
<circle cx="39.8484" cy="3.69701" r="3.69701" fill="#BFC3CE"/>
<circle cx="3.69701" cy="148.303" r="3.69701" fill="#BFC3CE"/>
<circle cx="148.303" cy="148.303" r="3.69701" fill="#BFC3CE"/>
<circle cx="112.152" cy="148.303" r="3.69701" fill="#BFC3CE"/>
<circle cx="76.0002" cy="148.303" r="3.69701" fill="#BFC3CE"/>
<circle cx="39.8484" cy="148.303" r="3.69701" fill="#BFC3CE"/>
<circle cx="3.69701" cy="112.151" r="3.69701" fill="#BFC3CE"/>
<circle cx="148.303" cy="112.151" r="3.69701" fill="#BFC3CE"/>
<circle cx="112.152" cy="112.151" r="3.69701" fill="#BFC3CE"/>
<circle cx="76.0002" cy="112.151" r="3.69701" fill="#BFC3CE"/>
<circle cx="39.8484" cy="112.151" r="3.69701" fill="#BFC3CE"/>
<circle cx="3.69701" cy="76" r="3.69701" fill="#BFC3CE"/>
<circle cx="148.303" cy="76" r="3.69701" fill="#BFC3CE"/>
<circle cx="112.152" cy="76" r="3.69701" fill="#BFC3CE"/>
<circle cx="76.0002" cy="76" r="3.69701" fill="#BFC3CE"/>
<circle cx="39.8484" cy="76" r="3.69701" fill="#BFC3CE"/>
<circle cx="3.69701" cy="39.8485" r="3.69701" fill="#BFC3CE"/>
<circle cx="148.303" cy="39.8485" r="3.69701" fill="#BFC3CE"/>
<circle cx="112.152" cy="39.8485" r="3.69701" fill="#BFC3CE"/>
<circle cx="76.0002" cy="39.8485" r="3.69701" fill="#BFC3CE"/>
<circle cx="39.8484" cy="39.8485" r="3.69701" fill="#BFC3CE"/>
</svg>
