<svg width="121" height="120" viewBox="0 0 121 120" fill="none" xmlns="http://www.w3.org/2000/svg">
<g opacity="0.7">
<path d="M60.257 118.53C27.3374 118.53 0.662777 92.2173 0.662778 59.7732C0.66278 27.329 27.3374 1.01587 60.257 1.01587C93.1767 1.01587 119.851 27.329 119.851 59.7732C119.851 92.2174 93.1767 118.53 60.257 118.53Z" stroke="#596789"/>
<path d="M59.3825 83.7539C59.773 84.1445 60.4062 84.1445 60.7967 83.7539L67.1607 77.39C67.5512 76.9995 67.5512 76.3663 67.1607 75.9758C66.7701 75.5852 66.137 75.5852 65.7465 75.9758L60.0896 81.6326L54.4327 75.9758C54.0422 75.5852 53.4091 75.5852 53.0185 75.9758C52.628 76.3663 52.628 76.9995 53.0185 77.39L59.3825 83.7539ZM59.0896 36.1692L59.0896 83.0468L61.0896 83.0468L61.0896 36.1692L59.0896 36.1692Z" fill="#39445F"/>
</g>
</svg>
