<svg width="58" height="51" viewBox="0 0 58 51" fill="none" xmlns="http://www.w3.org/2000/svg">
<path d="M1.49318 50.8764C1.05729 50.7261 0.679136 50.4432 0.41146 50.0674C0.143784 49.6915 -5.80685e-05 49.2413 1.75852e-08 48.7797C1.75852e-08 38.6495 2.0315 30.5482 6.04053 24.6988C10.884 17.6312 18.5243 13.8259 28.7842 13.3533V2.21707C28.7842 1.78291 28.9116 1.3583 29.1504 0.99594C29.3892 0.633576 29.729 0.349396 30.1276 0.178655C30.5262 0.00791333 30.9662 -0.0418761 31.3928 0.0354628C31.8194 0.112802 32.214 0.313866 32.5275 0.613712L56.8834 23.895C57.0998 24.102 57.2721 24.3509 57.3898 24.6264C57.5075 24.902 57.5682 25.1987 57.5682 25.4984C57.5682 25.7981 57.5075 26.0947 57.3898 26.3703C57.2721 26.6459 57.0998 26.8947 56.8834 27.1017L32.5275 50.383C32.214 50.6829 31.8194 50.884 31.3928 50.9613C30.9662 51.0386 30.5262 50.9888 30.1276 50.8181C29.729 50.6474 29.3892 50.3632 29.1504 50.0008C28.9116 49.6385 28.7842 49.2139 28.7842 48.7797V37.7252C22.5568 37.9137 17.8517 38.9239 14.1056 40.8627C10.0579 42.958 7.1227 46.0885 3.95921 50.1475C3.67541 50.5114 3.28525 50.7775 2.84317 50.9086C2.40108 51.0398 1.92913 51.0295 1.49318 50.8792V50.8764Z" fill="#EBEBEB"/>
</svg>
