<svg width="155" height="104" viewBox="0 0 155 104" fill="none" xmlns="http://www.w3.org/2000/svg">
<path d="M129.69 0.622314H25.311C11.6045 0.622314 0.450684 11.7761 0.450684 25.4777V100.656C0.450684 102.019 1.55668 103.125 2.91943 103.125H152.081C153.439 103.125 154.55 102.019 154.55 100.656V25.4777C154.55 11.7761 143.406 0.622314 129.69 0.622314ZM123.251 21.5376H31.7594C30.3966 21.5376 29.2906 20.4316 29.2906 19.0688C29.2906 17.711 30.3966 16.6001 31.7594 16.6001H123.251C124.619 16.6001 125.72 17.711 125.72 19.0688C125.72 20.4316 124.619 21.5376 123.251 21.5376Z" fill="#596789"/>
</svg>
